<?xml version="1.0" encoding="utf-8"?>
<!-- Generator: Adobe Illustrator 23.0.1, SVG Export Plug-In . SVG Version: 6.00 Build 0)  -->
<svg version="1.1" id="Слой_1" xmlns="http://www.w3.org/2000/svg" xmlns:xlink="http://www.w3.org/1999/xlink"
	 	viewBox="105 312 515 330" xml:space="preserve">
<style type="text/css">
	.st0{fill:#fff;}
</style>
<path class="st0" d="M458,408.5c-2.6,0-5.2,1.1-7.1,2.9c-1.9,1.9-2.9,4.4-2.9,7.1s1.1,5.2,2.9,7.1c1.9,1.9,4.4,2.9,7.1,2.9
	s5.2-1.1,7.1-2.9c1.9-1.9,2.9-4.5,2.9-7.1s-1.1-5.2-2.9-7.1C463.2,409.5,460.6,408.5,458,408.5z"/>
<path class="st0" d="M581.8,318.1C581.9,318.1,581.9,318,581.8,318.1c-6.4-2.8-12.4-5.7-19.7-5.5c-0.4,0-0.7,0-1-0.1h-74.9
	c-0.7,0.4-1.5,0.6-2.5,0.6c-9-0.1-18.1-1-27.1-0.8c0,0.1,0,0.1,0,0.2h-34.5c0,0,0-0.1,0-0.1c-6.9,0-13.8,0-20.7,0.1
	c-0.1,0.1-0.3,0.1-0.5,0.1h-74.6c-0.2,0-0.4,0-0.6,0c-0.2,0-0.3,0-0.5,0H319c-0.5,0.4-1.2,0.7-2.1,0.9c-6.9,1.1-13.9-0.5-20.9-0.6
	c-0.6,0-1.1-0.1-1.6-0.3h-30.7c-0.6,0.4-1.4,0.6-2.3,0.7c-6.5,0.4-13.6,1.7-20.1,0.4c-1-0.2-1.8-0.6-2.3-1.1h-82.6
	c-0.3,0.1-0.7,0.1-1.1,0.1c-0.2,0-0.5,0-0.7,0c-2.2,0.2-4.3,0.3-6.5,0.5c-0.4,0.1-0.8,0.2-1.2,0.2c0,0,0,0,0,0
	c-3.6,0.9-7.1,2.2-10.1,4.4c-0.4,0.3-0.8,0.5-1.2,0.7c-19.3,9.4-32.7,29.3-32.7,52.2c0,32,26,58,58,58h259c5.5,0,10-4.5,10-10
	c0-5.5-4.5-10-10-10h-17.2c8.9-10.2,14.2-23.5,14.2-38s-5.4-27.8-14.2-38h110.5c-8.9,10.2-14.2,23.5-14.2,38s5.4,27.8,14.2,38h-18.6
	c-5.5,0-10,4.5-10,10c0,5.5,4.5,10,10,10H557c32,0,58-26,58-58C615,347.4,601.4,327.4,581.8,318.1z M161,408.5c-21,0-38-17-38-38
	s17-38,38-38s38,17,38,38S181.9,408.5,161,408.5z M315.2,408.5H204.7c8.9-10.2,14.2-23.5,14.2-38s-5.4-27.8-14.2-38h110.5
	c-8.9,10.2-14.2,23.5-14.2,38S306.4,398.3,315.2,408.5z M359,408.5c-21,0-38-17-38-38s17-38,38-38s38,17,38,38
	S379.9,408.5,359,408.5z M557,408.5c-21,0-38-17-38-38s17-38,38-38s38,17,38,38S577.9,408.5,557,408.5z"/>
<path class="st0" d="M359,360.5c-2.6,0-5.2,1.1-7.1,2.9s-2.9,4.4-2.9,7.1c0,2.6,1.1,5.2,2.9,7.1c1.9,1.9,4.4,2.9,7.1,2.9
	s5.2-1.1,7.1-2.9c1.9-1.9,2.9-4.4,2.9-7.1c0-2.6-1.1-5.2-2.9-7.1C364.2,361.5,361.6,360.5,359,360.5z"/>
<path class="st0" d="M557,360.5c-2.6,0-5.2,1.1-7.1,2.9s-2.9,4.4-2.9,7.1c0,2.6,1.1,5.2,2.9,7.1c1.9,1.9,4.4,2.9,7.1,2.9
	s5.2-1.1,7.1-2.9c1.9-1.9,2.9-4.4,2.9-7.1c0-2.6-1.1-5.2-2.9-7.1S559.6,360.5,557,360.5z"/>
<path class="st0" d="M168,377.5c1.9-1.9,2.9-4.4,2.9-7.1c0-2.6-1.1-5.2-2.9-7.1s-4.4-2.9-7.1-2.9s-5.2,1.1-7.1,2.9s-2.9,4.4-2.9,7.1
	c0,2.6,1.1,5.2,2.9,7.1c1.9,1.9,4.4,2.9,7.1,2.9S166.2,379.4,168,377.5z"/>
<rect x="227.6" y="312.5" class="st0" width="339.4" height="15.4"/>
</svg>
