<?xml version="1.0" encoding="utf-8"?>
<!-- Generator: Adobe Illustrator 23.0.1, SVG Export Plug-In . SVG Version: 6.00 Build 0)  -->
<svg version="1.1" id="Слой_1" xmlns="http://www.w3.org/2000/svg" xmlns:xlink="http://www.w3.org/1999/xlink"
	 viewBox="430 190 480 330" xml:space="preserve" >
<style type="text/css">
	.st0{fill:#fff;}
</style>
<path class="st0" d="M609,511.6c2.2,0,4.4,0,6.6,0.1v-16.8H702v17c6.7,0,13.3,0,20,0V375.5c0-19.3-6.5-38.3-18.4-53.6
	c-9.1-11.8-14.2-26.4-14.2-41.3v-55c0-10.8-8.8-19.6-19.6-19.6h-22.2c-10.8,0-19.6,8.8-19.6,19.6v55c0,14.9-5,29.5-14.1,41.3
	c-11.8,15.2-18.3,34.2-18.3,53.5v136.2C600,511.1,604.6,511.6,609,511.6z M702,474.9h-86.4v-60H702V474.9z M648.1,226h21.4v31h-21.4
	V226z M615.6,375.5c0-14.9,5-29.5,14.2-41.3c11.8-15.2,18.3-34.2,18.3-53.5V277h21.4v3.6c0,19.3,6.5,38.3,18.4,53.6
	C697,346,702,360.6,702,375.5v19.4h-86.4V375.5z"/>
<path class="st0" d="M776.4,494.9h86.4v16.8c0.2,0,0.4,0,0.6,0.1c5.7,1,11.7-0.1,17.5,0.1c0.6,0,1.3,0.1,1.9,0.1V375.5
	c0-19.3-6.5-38.3-18.4-53.6c-9.1-11.8-14.2-26.4-14.2-41.3v-55c0-10.8-8.8-19.6-19.6-19.6h-22.2c-10.8,0-19.6,8.8-19.6,19.6v55
	c0,14.9-5,29.5-14.1,41.3c-11.8,15.2-18.3,34.2-18.3,53.5v136.1h20V494.9z M808.9,226h21.4v31h-21.4V226z M776.4,375.5
	c0-14.9,5-29.5,14.2-41.3c11.8-15.2,18.3-34.3,18.3-53.5V277h21.4v3.6c0,19.3,6.5,38.3,18.4,53.6c9.1,11.8,14.2,26.4,14.2,41.3v19.4
	h-86.4V375.5z M776.4,414.9h86.4v60h-86.4V414.9z"/>
<path class="st0" d="M454.8,511.3v-16.4h86.4V512c2.1-0.1,4.3-0.2,6.2-0.2c4.6,0,9.2,0.1,13.8,0.1V375.5c0-19.3-6.5-38.3-18.4-53.6
	c-9.1-11.8-14.2-26.4-14.2-41.3v-55c0-10.8-8.8-19.6-19.6-19.6h-22.2c-10.8,0-19.6,8.8-19.6,19.6v55c0,14.9-5,29.5-14.2,41.3
	c-11.8,15.2-18.3,34.2-18.3,53.5v136c3.7,0,7.4,0.1,11.2,0.1C448.9,511.5,451.9,511.3,454.8,511.3z M487.3,226h21.4v31h-21.4V226z
	 M454.8,414.9h24c5.5,0,10-4.5,10-10s-4.5-10-10-10h-24v-19.4c0-14.9,5-29.5,14.1-41.3c11.8-15.2,18.3-34.2,18.3-53.5V277h21.4v3.6
	c0,19.3,6.5,38.3,18.4,53.6c9.1,11.8,14.2,26.4,14.2,41.3v99.4h-86.4V414.9z"/>
<path class="st0" d="M516.8,414.9c2.6,0,5.2-1.1,7.1-2.9c1.9-1.9,2.9-4.4,2.9-7.1c0-2.6-1.1-5.2-2.9-7.1s-4.4-2.9-7.1-2.9
	s-5.2,1.1-7.1,2.9s-2.9,4.4-2.9,7.1c0,2.6,1.1,5.2,2.9,7.1C511.6,413.8,514.2,414.9,516.8,414.9z"/>
<rect x="434.8" y="503.3" class="st0" width="20" height="16"/>
<rect x="541.2" y="503.3" class="st0" width="20" height="16"/>
<rect x="595.6" y="503.3" class="st0" width="20" height="16"/>
<rect x="702" y="503.3" class="st0" width="20" height="16"/>
<rect x="756.4" y="503.3" class="st0" width="20" height="16"/>
<rect x="862.8" y="503.3" class="st0" width="20" height="16"/>
</svg>
