<?xml version="1.0" encoding="utf-8"?>
<!-- Generator: Adobe Illustrator 22.1.0, SVG Export Plug-In . SVG Version: 6.00 Build 0)  -->
<svg version="1.1" id="Layer_1" xmlns="http://www.w3.org/2000/svg" xmlns:xlink="http://www.w3.org/1999/xlink" x="0px" y="0px"
	 viewBox="0 0 512 512" style="enable-background:new 0 0 512 512;" xml:space="preserve">
<style type="text/css">
	.st0{fill:#FFFFFF;}
</style>
<g>
	<g>
		<path class="st0" d="M437.2,345.2c-0.5-0.6-1-1.2-1.4-1.8c-0.5-0.7-0.9-1.3-1.3-2c-1.4-1.1-2.9-2.1-4.1-3.4
			c-0.5-0.6-1-1.3-1.5-1.9c-0.2-0.2-0.3-0.5-0.5-0.7c0,0,0,0-0.1-0.1c-1.4-0.4-2.3-1.2-2.8-2.2l-41.9-41.9c-0.8,0.6-1.8,0.9-2.9,0.9
			c-1.7,0-3.5-0.2-5.2-0.3c-0.3,0-0.6,0.1-1,0.1c-5.2-0.1-10.2-0.7-15.2-1.8l63.2,63.2c2.1,2.1,3.3,4.9,3.3,7.9c0,3-1.2,5.8-3.3,7.9
			c-2.1,2.1-4.9,3.3-7.9,3.3s-5.8-1.2-7.9-3.3l-79.3-79.3c-3.2-3.2-8.4-3.2-11.6,0c-3.2,3.2-3.2,8.4,0,11.6l85.5,85.4
			c2.1,2.1,3.3,4.9,3.3,7.9c0,3-1.2,5.8-3.3,7.9c-4.3,4.3-11.4,4.3-15.8,0l-14.4-14.4c-0.1-0.1-0.2-0.2-0.2-0.2c0,0-0.1,0-0.1-0.1
			l-66.3-66.3c-3.2-3.2-8.4-3.2-11.6,0c-3.2,3.2-3.2,8.4,0,11.6l66.5,66.5c2,2.1,3.2,4.8,3.2,7.8c0,3-1.2,5.8-3.3,7.9
			c-4.3,4.3-11.4,4.3-15.7,0l-72.1-72.1c-3.2-3.2-8.4-3.2-11.6,0c-3.2,3.2-3.2,8.4,0,11.6l53.4,53.4c0,0,0,0,0,0
			c2.1,2.1,3.3,4.9,3.3,7.9c0,3-1.2,5.8-3.3,7.9c-0.4,0.4-0.9,0.8-1.4,1.2c0.5,0.8,0.8,1.7,0.7,2.6c-0.7,5.2-1.8,10.9-4.3,15.6
			c6.3-0.6,12.1-3.4,16.6-7.9c2.8-2.8,4.8-6,6.2-9.5l0.8,0.8c5.4,5.4,12.4,8,19.4,8s14.1-2.7,19.4-8c2.8-2.8,5-6.2,6.3-9.9
			c4.8,3.5,10.5,5.2,16.2,5.2c7,0,14.1-2.7,19.4-8c5.2-5.2,8-12.1,8-19.4c0-2.2-0.3-4.4-0.8-6.5c5.2-1.1,10-3.6,13.9-7.5
			c5.2-5.2,8-12.1,8-19.4c0-5.8-1.8-11.3-5.1-15.9L437.2,345.2z"/>
		<path class="st0" d="M284.5,175.4c3.2-2.9,6.1-6.1,8.9-9.3c1.4-1.6,3-3,4.6-4.3c-4.4,0.5-8.7,1.5-12.9,3c-9.7,3.5-20,1.3-27-5.7
			l-20.4-20.4l2.4-2.4c1.5-1.5,2.4-3.6,2.4-5.8s-0.9-4.2-2.4-5.8L190.4,75c-3.2-3.2-8.4-3.2-11.6,0L68.3,185.5
			c-3.2,3.2-3.2,8.4,0,11.6l49.6,49.7c1.5,1.5,3.6,2.4,5.8,2.4c2.2,0,4.2-0.9,5.8-2.4l3-3l14.4,14.4c3.6,3.6,6,8.2,7,13.1
			c4.4,23.5,15,45,30.9,62.6c1.2-0.9,2.1-2.1,3.3-3.1c1.4-1.2,2.9-2.1,4.5-2.9c2.2-1.1,4.3-1.9,6.5-2.7
			c-15.1-15.8-25.1-35.4-29.1-57c-1.5-8.2-5.5-15.7-11.5-21.7l-14.4-14.4l82-82l20.4,20.4c7.1,7.1,16.5,11.2,26.3,11.9
			c0.3-0.3,0.6-0.5,1.1-0.7c2.9-1.2,5.5-2.9,8.1-4.6c0.7-0.5,1.4-0.9,2.1-1.4C284.2,175.7,284.4,175.5,284.5,175.4z M123.8,229.4
			l-38.1-38.1l99-99l38.1,38.1L123.8,229.4z"/>
	</g>
</g>
<g>
	<g>
		<circle class="st0" cx="119.5" cy="197.5" r="8.2"/>
	</g>
</g>
</svg>
