<?xml version="1.0" encoding="utf-8"?>
<!-- Generator: Adobe Illustrator 22.1.0, SVG Export Plug-In . SVG Version: 6.00 Build 0)  -->
<svg version="1.1" id="Layer_1" xmlns="http://www.w3.org/2000/svg" xmlns:xlink="http://www.w3.org/1999/xlink" x="0px" y="0px"
	 viewBox="0 0 512 512" style="enable-background:new 0 0 512 512;" xml:space="preserve">
<style type="text/css">
	.st0{fill:#FFFFFF;}
</style>
<g>
	<g>
		<path class="st0" d="M460,177l-99.3-99.3c-3.2-3.2-8.4-3.2-11.6,0l-49.6,49.7c-1.5,1.5-2.4,3.6-2.4,5.8s0.9,4.2,2.4,5.8l5,5
			l-11.4,11.4c-7.4,7.4-18.9,9.4-28.5,5c-9.1-4.1-19.2-6.3-29.2-6.3c-11.9,0-23.5,3-33.8,8.6c-0.2,0-0.4-0.1-0.6-0.1
			c-0.4,0.4-0.9,0.7-1.5,0.9c-7.3,2.8-13.2,9.9-18.1,15.7c-0.5,0.6-1,1-1.6,1.3l-48.2,48.2c-6.2,6.2-9.6,14.4-9.6,23.2
			c0,8.8,3.4,17,9.6,23.2c6.4,6.4,14.8,9.6,23.2,9.6c8.4,0,16.8-3.2,23.2-9.6l25.4-25.4l6.9,6.9l0.6,0.6c0,0,0,0,0,0l0,0
			c0.1,0.1,0.2,0.2,0.2,0.2l15.4,15.4c3.9,2,7.7,4,11.9,5.4c6.4,2.1,12.6,3.4,19.3,3.6c0.3-0.1,0.5-0.1,0.8-0.1l-0.1-0.1
			c1.1,0.1,2.3,0.1,3.4,0.1c5.2,0,10.6-0.9,15.9-3.1c4.2-1.7,6.2-6.5,4.5-10.7c-1.7-4.2-6.5-6.2-10.7-4.5
			c-21,8.6-46.3-15.1-49.1-17.9c0,0-0.1-0.1-0.1-0.1l-0.3-0.3c0,0,0,0,0,0l-0.3-0.3c0,0,0,0,0,0l-6.9-6.9l7.8-7.8
			c3.2-3.2,3.2-8.4,0-11.6c-3.2-3.2-8.4-3.2-11.6,0l-13.6,13.6c0,0,0,0,0,0s0,0,0,0l-31.2,31.2c-6.4,6.4-16.8,6.4-23.3,0
			c-3.1-3.1-4.8-7.2-4.8-11.6s1.7-8.5,4.8-11.6l53.9-53.9c3-3,6.3-5.6,9.9-7.8c8.5-5.3,18.3-8,28.4-8c7.7,0,15.4,1.7,22.4,4.8
			c15.8,7.2,34.7,3.8,46.9-8.3l11.4-11.4l66.9,66.9l-24.4,24.4c-5.7,5.7-9.4,12.7-10.8,20.4c-4,22.3-14.5,42.7-30.4,58.9
			c2.7,1.4,4.2,4.5,6.5,6.2c0.2,0.1,0.4,0.3,0.5,0.4c0.8,0.4,1.6,0.9,2.1,1.7c1,0.8,2,1.6,2.8,2.6c0,0,0.1,0.1,0.1,0.1
			c18-18.5,29.9-41.6,34.4-67c0.8-4.4,2.9-8.4,6.2-11.7l24.4-24.4l4.3,4.3c1.6,1.6,3.7,2.4,5.8,2.4c2.1,0,4.2-0.8,5.8-2.4l49.6-49.7
			c1.5-1.5,2.4-3.6,2.4-5.8S461.6,178.6,460,177z M404.6,220.9l-87.7-87.7L355,95.1l87.7,87.7L404.6,220.9z"/>
	</g>
</g>
<g>
	<g>
		<circle class="st0" cx="412.8" cy="189.1" r="8.2"/>
	</g>
</g>
</svg>
