<?xml version="1.0" encoding="utf-8"?>
<!-- Generator: Adobe Illustrator 22.1.0, SVG Export Plug-In . SVG Version: 6.00 Build 0)  -->
<svg version="1.1" id="Layer_1" xmlns="http://www.w3.org/2000/svg" xmlns:xlink="http://www.w3.org/1999/xlink" x="0px" y="0px"
	 viewBox="60 280 170 170"  xml:space="preserve">
<style type="text/css">
	.st0{fill:#FFFFFF;}
</style>
<g>
	<g>
		<path class="st0" d="M179.7,401.5c-5.6-5.6-13-8.6-20.8-8.6c-0.2,0-0.4,0-0.7,0c0.2-7.7-2.7-15.6-8.6-21.5
			c-5.6-5.6-13-8.6-20.8-8.6c-0.5,0-1,0-1.5,0c0.4-8-2.5-16.2-8.6-22.3c-7.4-7.4-17.8-10-27.4-7.9c-2.7,0.9-5.4,1.5-8,2.8
			c-2.7,1.3-5.2,3-7.3,5.2c0.1,0.2,0.3,0.3,0.4,0.5c0,0-3.1,3.9-3.4,4.3c-1,1.5-1.9,3.2-2.5,4.9c-1.4,3.5-2.1,7.3-2.1,11
			c0,7.9,3.1,15.3,8.6,20.8c5.7,5.7,13.3,8.6,20.8,8.6c0.5,0,1,0,1.5,0c-0.4,8,2.5,16.2,8.6,22.3c5.6,5.6,13,8.6,20.8,8.6
			c0.2,0,0.4,0,0.7,0c-0.2,7.7,2.7,15.6,8.6,21.5c5.6,5.6,12.9,8.6,20.8,8.6c5.7,0,11.4-1.7,16.2-4.9c2.1-1.4,4-3.2,5.7-5
			c0.1-0.1,0.2-0.2,0.3-0.2c0.1,0,0.2,0.1,0.3,0.1c0.1,0,0.2-0.1,0.2-0.1c3.8-3.7,4.7-9.1,5.7-14.1c0.6-3.3,1.2-6.5,0.6-9.8
			c-0.5-3-1.4-5.9-2.8-8.6C183.8,406.3,182,403.7,179.7,401.5z M107.3,370.6c-5.1,5.1-13.4,5.1-18.5,0c-2.5-2.5-3.8-5.8-3.8-9.2
			c0-3.5,1.4-6.8,3.8-9.2c2.5-2.5,5.9-3.8,9.2-3.8c3.3,0,6.7,1.3,9.2,3.8C112.4,357.2,112.4,365.5,107.3,370.6z M138.1,401.5
			c-2.5,2.5-5.8,3.8-9.2,3.8c-3.5,0-6.8-1.4-9.2-3.8c-5.1-5.1-5.1-13.4,0-18.5c2.5-2.5,5.9-3.8,9.2-3.8c3.3,0,6.7,1.3,9.2,3.8
			C143.2,388.1,143.2,396.4,138.1,401.5z M168.2,431.5c-2.5,2.5-5.8,3.8-9.2,3.8c-3.5,0-6.8-1.4-9.2-3.8c-5.1-5.1-5.1-13.4,0-18.5
			c2.5-2.5,5.9-3.8,9.2-3.8c3.3,0,6.7,1.3,9.2,3.8C173.3,418.1,173.3,426.4,168.2,431.5z"/>
	</g>
</g>
</svg>
