<svg height="479pt" viewBox="0 -19 479.62008 479" width="479pt" xmlns="http://www.w3.org/2000/svg" fill="#46387d"><path d="m383.761719 144.308594c-.121094-66.351563-45.523438-124.046875-109.984375-139.765625l-.136719-.066407-.535156-.109374c-2.546875-.609376-5.105469-1.167969-7.699219-1.640626-3.039062-.535156-6.0625-.996093-9.070312-1.382812-1.527344-.175781-3.070313-.296875-4.617188-.425781-3.664062-.320313-7.320312-.527344-10.972656-.558594-.328125 0-.648438-.050781-.984375-.050781-.335938 0-.65625.050781-.984375.050781-3.65625 0-7.3125.238281-10.976563.558594-1.542969.128906-3.082031.25-4.617187.425781-3.007813.359375-6.03125.824219-9.070313 1.382812-2.59375.472657-5.152343 1.03125-7.695312 1.640626l-.539063.109374-.132812.066407c-55.609375 13.46875-97.949219 58.613281-107.828125 114.972656-9.878907 56.359375 14.578125 113.210937 62.289062 144.792969h-.445312c-13.257813 0-24 10.746094-24 24v16c.03125 8.757812 4.84375 16.800781 12.550781 20.960937-4.890625 5.222657-8.277344 11.671875-9.800781 18.664063l-14.304688 66.777344c-2.703125 12.511718 4.691407 24.992187 16.964844 28.628906 12.273437 3.640625 25.277344-2.792969 29.828125-14.757813l26.800781-61.433593 8.046875 56.609374c1.695313 11.808594 11.820313 20.574219 23.753906 20.550782h20.320313c11.949219 0 22.082031-8.796875 23.757813-20.628906l7.679687-53.449219 22.890625 57.832031c4.355469 12.117188 17.351562 18.789062 29.738281 15.269531 12.382813-3.523437 19.925781-16.035156 17.261719-28.628906l-14.3125-66.769531c-1.394531-6.375-4.339844-12.308594-8.578125-17.273438 9.257813-3.550781 15.378906-12.433594 15.402344-22.351562v-16c0-13.253906-10.746094-24-24-24h-.449219c40.175781-26.726563 64.355469-71.746094 64.449219-120zm-120.121094-125.597656c-1.230469 12.265624-11.554687 21.601562-23.878906 21.601562-12.328125 0-22.652344-9.335938-23.882813-21.601562 4.035156-.78125 8.035156-1.367188 12-1.761719 1.433594-.128907 2.898438-.128907 4.335938-.214844 5.042968-.320313 10.097656-.320313 15.136718 0 1.449219.085937 2.921876.085937 4.351563.214844 3.929687.359375 7.90625.960937 11.9375 1.761719zm-23.878906 37.597656c48.597656 0 88 39.398437 88 88 0 48.601562-39.402344 88-88 88-48.601563 0-88-39.398438-88-88 .054687-48.574219 39.421875-87.941406 88-88zm-83.632813 362.402344c-1.027344 2.890624-3.539062 4.996093-6.5625 5.511718-3.023437.515625-6.089844-.644531-8.015625-3.03125-1.617187-1.988281-2.242187-4.601562-1.695312-7.105468l14.304687-66.800782c2.417969-11.039062 12.171875-18.925781 23.472656-18.976562h17.910157zm101.71875-1.328126c-.519531 3.980469-3.914062 6.957032-7.925781 6.960938h-20.320313c-3.988281-.003906-7.367187-2.941406-7.921874-6.890625l-11.6875-82.253906 3.007812-6.890625h53.320312l3.144532 7.929687zm76 3.808594c-2.050781 2.238282-5.109375 3.261719-8.097656 2.707032-2.984375-.554688-5.472656-2.609376-6.582031-5.4375l-34.078125-86.222657-.113282-.265625-1.449218-3.664062h14.265625c11.300781.050781 21.050781 7.9375 23.464843 18.976562l14.308594 66.769532c.539063 2.503906-.082031 5.113281-1.695312 7.101562zm-6.085937-132.882812v16c0 4.417968-3.582031 8-8 8h-160c-4.417969 0-8-3.582032-8-8v-16c0-4.417969 3.582031-8 8-8h160c4.417969 0 8 3.582031 8 8zm-43.335938-24h-89.328125c-51.066406-19.015625-84.492187-68.277344-83.296875-122.753906 1.191407-54.476563 36.742188-102.226563 88.589844-118.988282 1.273437 8.230469 5.09375 15.851563 10.921875 21.800782-49.910156 14.191406-81.722656 63.003906-74.554688 114.394531 7.164063 51.390625 51.113282 89.636719 103.003907 89.636719 51.886719 0 95.835937-38.246094 103.003906-89.636719 7.164063-51.390625-24.648437-100.203125-74.558594-114.394531 5.828125-5.949219 9.648438-13.570313 10.921875-21.800782 51.847656 16.761719 87.398438 64.511719 88.589844 118.988282 1.195312 54.476562-32.230469 103.738281-83.292969 122.753906zm0 0"/><path d="m239.761719 216.308594c39.761719 0 72-32.234375 72-72 0-39.761719-32.238281-72-72-72-39.765625 0-72 32.238281-72 72 .046875 39.746094 32.253906 71.953125 72 72zm0-128c30.925781 0 56 25.074218 56 56 0 30.929687-25.074219 56-56 56-30.929688 0-56-25.070313-56-56 .035156-30.910156 25.085937-55.964844 56-56zm0 0"/><path d="m239.761719 168.308594c13.253906 0 24-10.742188 24-24 0-13.253906-10.746094-24-24-24-13.257813 0-24 10.746094-24 24 0 13.257812 10.742187 24 24 24zm0-32c4.417969 0 8 3.582031 8 8 0 4.417968-3.582031 8-8 8s-8-3.582032-8-8c0-4.417969 3.582031-8 8-8zm0 0"/><path d="m87.761719 32.308594c-44.382813.121094-81.726563 33.273437-87.113281 77.328125-5.382813 44.050781 22.882812 85.21875 65.929687 96.023437l-9.472656 14.210938c-2.453125 3.675781-1.460938 8.644531 2.214843 11.09375 3.675782 2.453125 8.644532 1.460937 11.097657-2.214844l16-24c.765625-1.171875 1.203125-2.527344 1.269531-3.929688v-.191406c.023438-2.265625-.777344-4.460937-2.246094-6.183594l-15.050781-22.574218c-2.449219-3.675782-7.417969-4.667969-11.09375-2.21875-3.675781 2.453125-4.667969 7.421875-2.214844 11.097656l4.4375 6.65625c-32.300781-12.574219-51.058593-46.378906-44.632812-80.445312 6.425781-34.0625 36.210937-58.710938 70.875-58.652344 4.417969 0 8-3.582032 8-8 0-4.417969-3.582031-8-8-8zm0 0"/><path d="m412.945312 34.957031 9.472657-14.207031c2.449219-3.675781 1.457031-8.644531-2.21875-11.097656-3.675781-2.449219-8.644531-1.457032-11.09375 2.21875l-16 24c-.765625 1.175781-1.203125 2.535156-1.273438 3.933594v.183593c-.019531.691407.046875 1.378907.199219 2.050781.25 1.550782.964844 2.996094 2.050781 4.136719l15.046875 22.574219c2.453125 3.675781 7.417969 4.667969 11.09375 2.214844 3.675782-2.449219 4.667969-7.417969 2.21875-11.09375l-4.441406-6.65625c31.039062 12.085937 49.734375 43.882812 45.207031 76.882812-4.527343 32.996094-31.101562 58.582032-64.246093 61.859375-4.417969.222657-7.820313 3.984375-7.601563 8.402344.222656 4.417969 3.984375 7.820313 8.402344 7.597656h.796875c42.527344-4.339843 75.78125-38.617187 78.835937-81.253906 3.054688-42.636719-24.972656-81.304687-66.441406-91.664063zm0 0"/></svg>