<?xml version="1.0" encoding="utf-8"?>
<!-- Generator: Adobe Illustrator 22.1.0, SVG Export Plug-In . SVG Version: 6.00 Build 0)  -->
<svg version="1.1" id="Слой_1" xmlns="http://www.w3.org/2000/svg" xmlns:xlink="http://www.w3.org/1999/xlink" x="0px" y="0px"
	 viewBox="0 0 459.9 90.1" style="enable-background:new 0 0 459.9 90.1;" xml:space="preserve">
<style type="text/css">
	.st0{fill:none;}
	.st1{clip-path:url(#SVGID_2_);fill:#2A2A2B;}
	.st2{clip-path:url(#SVGID_2_);fill:#878788;}
	.st3{opacity:0.8;clip-path:url(#SVGID_2_);fill:#575757;}
	.st4{clip-path:url(#SVGID_4_);fill:#2C256C;}
	.st5{clip-path:url(#SVGID_4_);}
	.st6{opacity:0.2;clip-path:url(#SVGID_6_);}
	.st7{clip-path:url(#SVGID_8_);fill:url(#SVGID_9_);}
</style>
<pattern  y="90.1" width="107.7" height="99.2" patternUnits="userSpaceOnUse" id="Unnamed_Pattern" viewBox="13.9 -135 107.7 99.2" style="overflow:visible;">
	<g>
		<rect x="13.9" y="-135" class="st0" width="107.7" height="99.2"/>
		<g>
			<defs>
				<rect id="SVGID_1_" x="13.9" y="-135" width="107.7" height="99.2"/>
			</defs>
			<clipPath id="SVGID_2_">
				<use xlink:href="#SVGID_1_"  style="overflow:visible;"/>
			</clipPath>
			<path class="st1" d="M127-129.9c-1.4,2.4-3.1,4.7-5,6.8c-5.9-6.3-9.5-14.7-9.5-23.8c0-9.1,3.6-17.4,9.5-23.8
				c-2.9,5.1-4.5,10.8-4.5,17C117.5-144.6,121.1-136.3,127-129.9"/>
			<path class="st2" d="M121.9-170.7c0,0.5,0,1,0,1.4c0,7.2,3.6,13.6,9.3,17.7c0.2,1.5,0.3,3.1,0.3,4.6c0,6.1-1.6,11.9-4.5,17
				c-5.9-6.3-9.5-14.7-9.5-23.8C117.4-159.8,119.1-165.6,121.9-170.7C121.9-170.7,121.9-170.7,121.9-170.7
				C121.9-170.7,121.9-170.7,121.9-170.7C121.9-170.7,121.9-170.7,121.9-170.7"/>
			<path class="st3" d="M119.7-160.3c0,8.3,4.3,15.7,11,20.7c-0.7,3.4-2,6.7-3.7,9.7c-5.9-6.3-9.5-14.7-9.5-23.8
				c0-6.1,1.6-11.9,4.5-17c0,0,0,0,0,0c0,0,0,0,0,0c0,0,0,0,0,0c0,0.1,0,0.1,0,0.2C120.5-167.4,119.7-163.9,119.7-160.3"/>
			<path class="st1" d="M109.3-129.9c-1.4,2.4-3.1,4.7-5,6.8c-5.9-6.3-9.5-14.7-9.5-23.8c0-9.1,3.6-17.4,9.5-23.8
				c-2.9,5.1-4.5,10.8-4.5,17C99.8-144.6,103.4-136.3,109.3-129.9"/>
			<path class="st2" d="M104.2-170.7c0,0.5,0,1,0,1.4c0,7.2,3.6,13.6,9.3,17.7c0.2,1.5,0.3,3.1,0.3,4.6c0,6.1-1.6,11.9-4.5,17
				c-5.9-6.3-9.5-14.7-9.5-23.8C99.7-159.8,101.4-165.6,104.2-170.7C104.2-170.7,104.2-170.7,104.2-170.7
				C104.2-170.7,104.2-170.7,104.2-170.7C104.2-170.7,104.2-170.7,104.2-170.7"/>
			<path class="st3" d="M102-160.3c0,8.3,4.3,15.7,11,20.7c-0.7,3.4-2,6.7-3.7,9.7c-5.9-6.3-9.5-14.7-9.5-23.8
				c0-6.1,1.6-11.9,4.5-17c0,0,0,0,0,0c0,0,0,0,0,0c0,0,0,0,0,0c0,0.1,0,0.1,0,0.2C102.8-167.4,102-163.9,102-160.3"/>
			<path class="st1" d="M73.1-129.9c-1.4,2.4-3.1,4.7-5,6.8c-5.9-6.3-9.5-14.7-9.5-23.8c0-9.1,3.6-17.4,9.5-23.8
				c-2.9,5.1-4.5,10.8-4.5,17C63.6-144.6,67.2-136.3,73.1-129.9"/>
			<path class="st2" d="M68.1-170.7c0,0.5,0,1,0,1.4c0,7.2,3.6,13.6,9.3,17.7c0.2,1.5,0.3,3.1,0.3,4.6c0,6.1-1.6,11.9-4.5,17
				c-5.9-6.3-9.5-14.7-9.5-23.8C63.6-159.8,65.2-165.6,68.1-170.7C68.1-170.7,68.1-170.7,68.1-170.7
				C68.1-170.7,68.1-170.7,68.1-170.7C68.1-170.7,68.1-170.7,68.1-170.7"/>
			<path class="st3" d="M65.8-160.3c0,8.3,4.3,15.7,11,20.7c-0.7,3.4-2,6.7-3.7,9.7c-5.9-6.3-9.5-14.7-9.5-23.8
				c0-6.1,1.6-11.9,4.5-17c0,0,0,0,0,0c0,0,0,0,0,0c0,0,0,0,0,0c0,0.1,0,0.1,0,0.2C66.6-167.4,65.8-163.9,65.8-160.3"/>
			<path class="st1" d="M55.4-129.9c-1.4,2.4-3.1,4.7-5,6.8c-5.9-6.3-9.5-14.7-9.5-23.8c0-9.1,3.6-17.4,9.5-23.8
				c-2.9,5.1-4.5,10.8-4.5,17C45.9-144.6,49.5-136.3,55.4-129.9"/>
			<path class="st2" d="M50.4-170.7c0,0.5,0,1,0,1.4c0,7.2,3.6,13.6,9.3,17.7c0.2,1.5,0.3,3.1,0.3,4.6c0,6.1-1.6,11.9-4.5,17
				c-5.9-6.3-9.5-14.7-9.5-23.8C45.9-159.8,47.5-165.6,50.4-170.7C50.4-170.7,50.4-170.7,50.4-170.7
				C50.4-170.7,50.4-170.7,50.4-170.7C50.4-170.7,50.4-170.7,50.4-170.7"/>
			<path class="st3" d="M48.1-160.3c0,8.3,4.3,15.7,11,20.7c-0.7,3.4-2,6.7-3.7,9.7c-5.9-6.3-9.5-14.7-9.5-23.8
				c0-6.1,1.6-11.9,4.5-17c0,0,0,0,0,0c0,0,0,0,0,0c0,0,0,0,0,0c0,0.1,0,0.1,0,0.2C48.9-167.4,48.1-163.9,48.1-160.3"/>
			<path class="st1" d="M91.2-129.9c-1.4,2.4-3.1,4.7-5,6.8c-5.9-6.3-9.5-14.7-9.5-23.8c0-9.1,3.6-17.4,9.5-23.8
				c-2.9,5.1-4.5,10.8-4.5,17C81.7-144.6,85.3-136.3,91.2-129.9"/>
			<path class="st2" d="M86.2-170.7c0,0.5,0,1,0,1.4c0,7.2,3.6,13.6,9.3,17.7c0.2,1.5,0.3,3.1,0.3,4.6c0,6.1-1.6,11.9-4.5,17
				c-5.9-6.3-9.5-14.7-9.5-23.8C81.7-159.8,83.3-165.6,86.2-170.7C86.2-170.7,86.2-170.7,86.2-170.7
				C86.2-170.7,86.2-170.7,86.2-170.7C86.2-170.7,86.2-170.7,86.2-170.7"/>
			<path class="st3" d="M83.9-160.3c0,8.3,4.3,15.7,11,20.7c-0.7,3.4-2,6.7-3.7,9.7c-5.9-6.3-9.5-14.7-9.5-23.8
				c0-6.1,1.6-11.9,4.5-17c0,0,0,0,0,0c0,0,0,0,0,0c0,0,0,0,0,0c0,0.1,0,0.1,0,0.2C84.7-167.4,83.9-163.9,83.9-160.3"/>
			<path class="st1" d="M19.3-129.9c-1.4,2.4-3.1,4.7-5,6.8c-5.9-6.3-9.5-14.7-9.5-23.8c0-9.1,3.6-17.4,9.5-23.8
				c-2.9,5.1-4.5,10.8-4.5,17C9.7-144.6,13.3-136.3,19.3-129.9"/>
			<path class="st2" d="M14.2-170.7c0,0.5,0,1,0,1.4c0,7.2,3.6,13.6,9.3,17.7c0.2,1.5,0.3,3.1,0.3,4.6c0,6.1-1.6,11.9-4.5,17
				c-5.9-6.3-9.5-14.7-9.5-23.8C9.7-159.8,11.3-165.6,14.2-170.7C14.2-170.7,14.2-170.7,14.2-170.7
				C14.2-170.7,14.2-170.7,14.2-170.7C14.2-170.7,14.2-170.7,14.2-170.7"/>
			<path class="st3" d="M12-160.3c0,8.3,4.3,15.7,11,20.7c-0.7,3.4-2,6.7-3.7,9.7c-5.9-6.3-9.5-14.7-9.5-23.8c0-6.1,1.6-11.9,4.5-17
				c0,0,0,0,0,0c0,0,0,0,0,0c0,0,0,0,0,0c0,0.1,0,0.1,0,0.2C12.8-167.4,12-163.9,12-160.3"/>
			<path class="st1" d="M37.4-129.9c-1.4,2.4-3.1,4.7-5,6.8c-5.9-6.3-9.5-14.7-9.5-23.8c0-9.1,3.6-17.4,9.5-23.8
				c-2.9,5.1-4.5,10.8-4.5,17C27.8-144.6,31.4-136.3,37.4-129.9"/>
			<path class="st2" d="M32.3-170.7c0,0.5,0,1,0,1.4c0,7.2,3.6,13.6,9.3,17.7c0.2,1.5,0.3,3.1,0.3,4.6c0,6.1-1.6,11.9-4.5,17
				c-5.9-6.3-9.5-14.7-9.5-23.8C27.8-159.8,29.4-165.6,32.3-170.7C32.3-170.7,32.3-170.7,32.3-170.7
				C32.3-170.7,32.3-170.7,32.3-170.7C32.3-170.7,32.3-170.7,32.3-170.7"/>
			<path class="st3" d="M30.1-160.3c0,8.3,4.3,15.7,11,20.7c-0.7,3.4-2,6.7-3.7,9.7c-5.9-6.3-9.5-14.7-9.5-23.8
				c0-6.1,1.6-11.9,4.5-17c0,0,0,0,0,0c0,0,0,0,0,0c0,0,0,0,0,0c0,0.1,0,0.1,0,0.2C30.9-167.4,30.1-163.9,30.1-160.3"/>
			<path class="st1" d="M109-78.8c-1.4,2.4-3.1,4.7-5,6.8c-5.9-6.3-9.5-14.7-9.5-23.8c0-9.1,3.6-17.4,9.5-23.8
				c-2.9,5.1-4.5,10.8-4.5,17C99.4-93.4,103-85.1,109-78.8"/>
			<path class="st2" d="M103.9-119.5c0,0.5,0,1,0,1.4c0,7.2,3.6,13.6,9.3,17.7c0.2,1.5,0.3,3.1,0.3,4.6c0,6.1-1.6,11.9-4.5,17
				c-5.9-6.3-9.5-14.7-9.5-23.8C99.4-108.7,101-114.5,103.9-119.5C103.9-119.5,103.9-119.5,103.9-119.5
				C103.9-119.5,103.9-119.5,103.9-119.5C103.9-119.5,103.9-119.5,103.9-119.5"/>
			<path class="st3" d="M101.7-109.2c0,8.3,4.3,15.7,11,20.7c-0.7,3.4-2,6.7-3.7,9.7c-5.9-6.3-9.5-14.7-9.5-23.8
				c0-6.1,1.6-11.9,4.5-17c0,0,0,0,0,0c0,0,0,0,0,0c0,0,0,0,0,0c0,0.1,0,0.1,0,0.2C102.5-116.2,101.7-112.8,101.7-109.2"/>
			<path class="st1" d="M99.6-106c-1.4,2.4-3.1,4.7-5,6.8c-5.9-6.3-9.5-14.7-9.5-23.8c0-9.1,3.6-17.4,9.5-23.8
				c-2.9,5.1-4.5,10.8-4.5,17C90-120.7,93.6-112.4,99.6-106"/>
			<path class="st2" d="M94.5-146.8c0,0.5,0,1,0,1.4c0,7.2,3.6,13.6,9.3,17.7c0.2,1.5,0.3,3.1,0.3,4.6c0,6.1-1.6,11.9-4.5,17
				c-5.9-6.3-9.5-14.7-9.5-23.8C90-135.9,91.6-141.7,94.5-146.8C94.5-146.7,94.5-146.8,94.5-146.8C94.5-146.8,94.5-146.8,94.5-146.8
				C94.5-146.8,94.5-146.8,94.5-146.8"/>
			<path class="st3" d="M92.3-136.4c0,8.3,4.3,15.7,11,20.7c-0.7,3.4-2,6.7-3.7,9.7c-5.9-6.3-9.5-14.7-9.5-23.8
				c0-6.1,1.6-11.9,4.5-17c0,0,0,0,0,0c0,0,0,0,0,0c0,0,0,0,0,0c0,0.1,0,0.1,0,0.2C93.1-143.4,92.3-140,92.3-136.4"/>
			<path class="st1" d="M127-30.7c-1.4,2.4-3.1,4.7-5,6.8c-5.9-6.3-9.5-14.7-9.5-23.8c0-9.1,3.6-17.4,9.5-23.8
				c-2.9,5.1-4.5,10.8-4.5,17C117.5-45.4,121.1-37.1,127-30.7"/>
			<path class="st2" d="M121.9-71.5c0,0.5,0,1,0,1.4c0,7.2,3.6,13.6,9.3,17.7c0.2,1.5,0.3,3.1,0.3,4.6c0,6.1-1.6,11.9-4.5,17
				c-5.9-6.3-9.5-14.7-9.5-23.8C117.4-60.6,119.1-66.4,121.9-71.5C121.9-71.5,121.9-71.5,121.9-71.5
				C121.9-71.5,121.9-71.5,121.9-71.5C121.9-71.5,121.9-71.5,121.9-71.5"/>
			<path class="st3" d="M119.7-61.1c0,8.3,4.3,15.7,11,20.7c-0.7,3.4-2,6.7-3.7,9.7c-5.9-6.3-9.5-14.7-9.5-23.8
				c0-6.1,1.6-11.9,4.5-17c0,0,0,0,0,0c0,0,0,0,0,0c0,0,0,0,0,0c0,0.1,0,0.1,0,0.2C120.5-68.1,119.7-64.7,119.7-61.1"/>
			<path class="st1" d="M117.6-58c-1.4,2.4-3.1,4.7-5,6.8c-5.9-6.3-9.5-14.7-9.5-23.8c0-9.1,3.6-17.4,9.5-23.8
				c-2.9,5.1-4.5,10.8-4.5,17C108-72.6,111.6-64.3,117.6-58"/>
			<path class="st2" d="M112.5-98.7c0,0.5,0,1,0,1.4c0,7.2,3.6,13.6,9.3,17.7c0.2,1.5,0.3,3.1,0.3,4.6c0,6.1-1.6,11.9-4.5,17
				c-5.9-6.3-9.5-14.7-9.5-23.8C108-87.9,109.6-93.6,112.5-98.7C112.5-98.7,112.5-98.7,112.5-98.7C112.5-98.7,112.5-98.7,112.5-98.7
				C112.5-98.7,112.5-98.7,112.5-98.7"/>
			<path class="st3" d="M110.3-88.3c0,8.3,4.3,15.7,11,20.7c-0.7,3.4-2,6.7-3.7,9.7c-5.9-6.3-9.5-14.7-9.5-23.8
				c0-6.1,1.6-11.9,4.5-17c0,0,0,0,0,0c0,0,0,0,0,0c0,0,0,0,0,0c0,0.1,0,0.1,0,0.2C111.1-95.4,110.3-91.9,110.3-88.3"/>
			<path class="st1" d="M109.3-30.7c-1.4,2.4-3.1,4.7-5,6.8c-5.9-6.3-9.5-14.7-9.5-23.8c0-9.1,3.6-17.4,9.5-23.8
				c-2.9,5.1-4.5,10.8-4.5,17C99.8-45.4,103.4-37.1,109.3-30.7"/>
			<path class="st2" d="M104.2-71.5c0,0.5,0,1,0,1.4c0,7.2,3.6,13.6,9.3,17.7c0.2,1.5,0.3,3.1,0.3,4.6c0,6.1-1.6,11.9-4.5,17
				c-5.9-6.3-9.5-14.7-9.5-23.8C99.7-60.6,101.4-66.4,104.2-71.5C104.2-71.5,104.2-71.5,104.2-71.5
				C104.2-71.5,104.2-71.5,104.2-71.5C104.2-71.5,104.2-71.5,104.2-71.5"/>
			<path class="st3" d="M102-61.1c0,8.3,4.3,15.7,11,20.7c-0.7,3.4-2,6.7-3.7,9.7c-5.9-6.3-9.5-14.7-9.5-23.8c0-6.1,1.6-11.9,4.5-17
				c0,0,0,0,0,0c0,0,0,0,0,0c0,0,0,0,0,0c0,0.1,0,0.1,0,0.2C102.8-68.1,102-64.7,102-61.1"/>
			<path class="st1" d="M99.9-58c-1.4,2.4-3.1,4.7-5,6.8c-5.9-6.3-9.5-14.7-9.5-23.8c0-9.1,3.6-17.4,9.5-23.8
				c-2.9,5.1-4.5,10.8-4.5,17C90.4-72.6,94-64.3,99.9-58"/>
			<path class="st2" d="M94.8-98.7c0,0.5,0,1,0,1.4c0,7.2,3.6,13.6,9.3,17.7c0.2,1.5,0.3,3.1,0.3,4.6c0,6.1-1.6,11.9-4.5,17
				c-5.9-6.3-9.5-14.7-9.5-23.8C90.3-87.9,92-93.6,94.8-98.7C94.8-98.7,94.8-98.7,94.8-98.7C94.8-98.7,94.8-98.7,94.8-98.7
				C94.8-98.7,94.8-98.7,94.8-98.7"/>
			<path class="st3" d="M92.6-88.3c0,8.3,4.3,15.7,11,20.7c-0.7,3.4-2,6.7-3.7,9.7c-5.9-6.3-9.5-14.7-9.5-23.8
				c0-6.1,1.6-11.9,4.5-17c0,0,0,0,0,0c0,0,0,0,0,0c0,0,0,0,0,0c0,0.1,0,0.1,0,0.2C93.4-95.4,92.6-91.9,92.6-88.3"/>
			<path class="st1" d="M126.7-78.8c-1.4,2.4-3.1,4.7-5,6.8c-5.9-6.3-9.5-14.7-9.5-23.8c0-9.1,3.6-17.4,9.5-23.8
				c-2.9,5.1-4.5,10.8-4.5,17C117.1-93.4,120.7-85.1,126.7-78.8"/>
			<path class="st2" d="M121.6-119.5c0,0.5,0,1,0,1.4c0,7.2,3.6,13.6,9.3,17.7c0.2,1.5,0.3,3.1,0.3,4.6c0,6.1-1.6,11.9-4.5,17
				c-5.9-6.3-9.5-14.7-9.5-23.8C117.1-108.7,118.7-114.5,121.6-119.5C121.6-119.5,121.6-119.5,121.6-119.5
				C121.6-119.5,121.6-119.5,121.6-119.5C121.6-119.5,121.6-119.5,121.6-119.5"/>
			<path class="st3" d="M119.4-109.2c0,8.3,4.3,15.7,11,20.7c-0.7,3.4-2,6.7-3.7,9.7c-5.9-6.3-9.5-14.7-9.5-23.8
				c0-6.1,1.6-11.9,4.5-17c0,0,0,0,0,0c0,0,0,0,0,0c0,0,0,0,0,0c0,0.1,0,0.1,0,0.2C120.2-116.2,119.4-112.8,119.4-109.2"/>
			<path class="st1" d="M117.3-106c-1.4,2.4-3.1,4.7-5,6.8c-5.9-6.3-9.5-14.7-9.5-23.8c0-9.1,3.6-17.4,9.5-23.8
				c-2.9,5.1-4.5,10.8-4.5,17C107.7-120.7,111.3-112.4,117.3-106"/>
			<path class="st2" d="M112.2-146.8c0,0.5,0,1,0,1.4c0,7.2,3.6,13.6,9.3,17.7c0.2,1.5,0.3,3.1,0.3,4.6c0,6.1-1.6,11.9-4.5,17
				c-5.9-6.3-9.5-14.7-9.5-23.8C107.7-135.9,109.3-141.7,112.2-146.8C112.2-146.7,112.2-146.8,112.2-146.8
				C112.2-146.8,112.2-146.8,112.2-146.8C112.2-146.8,112.2-146.8,112.2-146.8"/>
			<path class="st3" d="M110-136.4c0,8.3,4.3,15.7,11,20.7c-0.7,3.4-2,6.7-3.7,9.7c-5.9-6.3-9.5-14.7-9.5-23.8
				c0-6.1,1.6-11.9,4.5-17c0,0,0,0,0,0c0,0,0,0,0,0c0,0,0,0,0,0c0,0.1,0,0.1,0,0.2C110.8-143.4,110-140,110-136.4"/>
			<path class="st1" d="M135.5-106c-1.4,2.4-3.1,4.7-5,6.8c-5.9-6.3-9.5-14.7-9.5-23.8c0-9.1,3.6-17.4,9.5-23.8
				c-2.9,5.1-4.5,10.8-4.5,17C126-120.7,129.6-112.4,135.5-106"/>
			<path class="st1" d="M135.7-58c-1.4,2.4-3.1,4.7-5,6.8c-5.9-6.3-9.5-14.7-9.5-23.8c0-9.1,3.6-17.4,9.5-23.8
				c-2.9,5.1-4.5,10.8-4.5,17C126.2-72.6,129.8-64.3,135.7-58"/>
			<path class="st1" d="M55.1-78.8c-1.4,2.4-3.1,4.7-5,6.8c-5.9-6.3-9.5-14.7-9.5-23.8c0-9.1,3.6-17.4,9.5-23.8
				c-2.9,5.1-4.5,10.8-4.5,17C45.6-93.4,49.2-85.1,55.1-78.8"/>
			<path class="st2" d="M50.1-119.5c0,0.5,0,1,0,1.4c0,7.2,3.6,13.6,9.3,17.7c0.2,1.5,0.3,3.1,0.3,4.6c0,6.1-1.6,11.9-4.5,17
				c-5.9-6.3-9.5-14.7-9.5-23.8C45.6-108.7,47.2-114.5,50.1-119.5C50.1-119.5,50.1-119.5,50.1-119.5
				C50.1-119.5,50.1-119.5,50.1-119.5C50.1-119.5,50.1-119.5,50.1-119.5"/>
			<path class="st3" d="M47.8-109.2c0,8.3,4.3,15.7,11,20.7c-0.7,3.4-2,6.7-3.7,9.7c-5.9-6.3-9.5-14.7-9.5-23.8
				c0-6.1,1.6-11.9,4.5-17c0,0,0,0,0,0c0,0,0,0,0,0c0,0,0,0,0,0c0,0.1,0,0.1,0,0.2C48.6-116.2,47.8-112.8,47.8-109.2"/>
			<path class="st1" d="M45.7-106c-1.4,2.4-3.1,4.7-5,6.8c-5.9-6.3-9.5-14.7-9.5-23.8c0-9.1,3.6-17.4,9.5-23.8
				c-2.9,5.1-4.5,10.8-4.5,17C36.2-120.7,39.8-112.4,45.7-106"/>
			<path class="st2" d="M40.7-146.8c0,0.5,0,1,0,1.4c0,7.2,3.6,13.6,9.3,17.7c0.2,1.5,0.3,3.1,0.3,4.6c0,6.1-1.6,11.9-4.5,17
				c-5.9-6.3-9.5-14.7-9.5-23.8C36.2-135.9,37.8-141.7,40.7-146.8C40.6-146.7,40.6-146.8,40.7-146.8
				C40.7-146.8,40.7-146.8,40.7-146.8C40.7-146.8,40.7-146.8,40.7-146.8"/>
			<path class="st3" d="M38.4-136.4c0,8.3,4.3,15.7,11,20.7c-0.7,3.4-2,6.7-3.7,9.7c-5.9-6.3-9.5-14.7-9.5-23.8
				c0-6.1,1.6-11.9,4.5-17c0,0,0,0,0,0c0,0,0,0,0,0c0,0,0,0,0,0c0,0.1,0,0.1,0,0.2C39.2-143.4,38.4-140,38.4-136.4"/>
			<path class="st1" d="M73.1-30.7c-1.4,2.4-3.1,4.7-5,6.8c-5.9-6.3-9.5-14.7-9.5-23.8c0-9.1,3.6-17.4,9.5-23.8
				c-2.9,5.1-4.5,10.8-4.5,17C63.6-45.4,67.2-37.1,73.1-30.7"/>
			<path class="st2" d="M68.1-71.5c0,0.5,0,1,0,1.4c0,7.2,3.6,13.6,9.3,17.7c0.2,1.5,0.3,3.1,0.3,4.6c0,6.1-1.6,11.9-4.5,17
				c-5.9-6.3-9.5-14.7-9.5-23.8C63.6-60.6,65.2-66.4,68.1-71.5C68.1-71.5,68.1-71.5,68.1-71.5C68.1-71.5,68.1-71.5,68.1-71.5
				C68.1-71.5,68.1-71.5,68.1-71.5"/>
			<path class="st3" d="M65.8-61.1c0,8.3,4.3,15.7,11,20.7c-0.7,3.4-2,6.7-3.7,9.7c-5.9-6.3-9.5-14.7-9.5-23.8
				c0-6.1,1.6-11.9,4.5-17c0,0,0,0,0,0c0,0,0,0,0,0c0,0,0,0,0,0c0,0.1,0,0.1,0,0.2C66.6-68.1,65.8-64.7,65.8-61.1"/>
			<path class="st1" d="M63.7-58c-1.4,2.4-3.1,4.7-5,6.8c-5.9-6.3-9.5-14.7-9.5-23.8c0-9.1,3.6-17.4,9.5-23.8
				c-2.9,5.1-4.5,10.8-4.5,17C54.2-72.6,57.8-64.3,63.7-58"/>
			<path class="st2" d="M58.7-98.7c0,0.5,0,1,0,1.4c0,7.2,3.6,13.6,9.3,17.7c0.2,1.5,0.3,3.1,0.3,4.6c0,6.1-1.6,11.9-4.5,17
				c-5.9-6.3-9.5-14.7-9.5-23.8C54.2-87.9,55.8-93.6,58.7-98.7C58.7-98.7,58.7-98.7,58.7-98.7C58.7-98.7,58.7-98.7,58.7-98.7
				C58.7-98.7,58.7-98.7,58.7-98.7"/>
			<path class="st3" d="M56.4-88.3c0,8.3,4.3,15.7,11,20.7c-0.7,3.4-2,6.7-3.7,9.7c-5.9-6.3-9.5-14.7-9.5-23.8
				c0-6.1,1.6-11.9,4.5-17c0,0,0,0,0,0c0,0,0,0,0,0c0,0,0,0,0,0c0,0.1,0,0.1,0,0.2C57.2-95.4,56.4-91.9,56.4-88.3"/>
			<path class="st1" d="M55.4-30.7c-1.4,2.4-3.1,4.7-5,6.8c-5.9-6.3-9.5-14.7-9.5-23.8c0-9.1,3.6-17.4,9.5-23.8
				c-2.9,5.1-4.5,10.8-4.5,17C45.9-45.4,49.5-37.1,55.4-30.7"/>
			<path class="st2" d="M50.4-71.5c0,0.5,0,1,0,1.4c0,7.2,3.6,13.6,9.3,17.7c0.2,1.5,0.3,3.1,0.3,4.6c0,6.1-1.6,11.9-4.5,17
				c-5.9-6.3-9.5-14.7-9.5-23.8C45.9-60.6,47.5-66.4,50.4-71.5C50.4-71.5,50.4-71.5,50.4-71.5C50.4-71.5,50.4-71.5,50.4-71.5
				C50.4-71.5,50.4-71.5,50.4-71.5"/>
			<path class="st3" d="M48.1-61.1c0,8.3,4.3,15.7,11,20.7c-0.7,3.4-2,6.7-3.7,9.7c-5.9-6.3-9.5-14.7-9.5-23.8
				c0-6.1,1.6-11.9,4.5-17c0,0,0,0,0,0c0,0,0,0,0,0c0,0,0,0,0,0c0,0.1,0,0.1,0,0.2C48.9-68.1,48.1-64.7,48.1-61.1"/>
			<path class="st1" d="M46-58c-1.4,2.4-3.1,4.7-5,6.8c-5.9-6.3-9.5-14.7-9.5-23.8c0-9.1,3.6-17.4,9.5-23.8
				c-2.9,5.1-4.5,10.8-4.5,17C36.5-72.6,40.1-64.3,46-58"/>
			<path class="st2" d="M41-98.7c0,0.5,0,1,0,1.4c0,7.2,3.6,13.6,9.3,17.7c0.2,1.5,0.3,3.1,0.3,4.6c0,6.1-1.6,11.9-4.5,17
				c-5.9-6.3-9.5-14.7-9.5-23.8C36.5-87.9,38.1-93.6,41-98.7C41-98.7,41-98.7,41-98.7C41-98.7,41-98.7,41-98.7
				C41-98.7,41-98.7,41-98.7"/>
			<path class="st3" d="M38.7-88.3c0,8.3,4.3,15.7,11,20.7C49-64.2,47.7-61,46-58c-5.9-6.3-9.5-14.7-9.5-23.8c0-6.1,1.6-11.9,4.5-17
				c0,0,0,0,0,0c0,0,0,0,0,0c0,0,0,0,0,0c0,0.1,0,0.1,0,0.2C39.5-95.4,38.7-91.9,38.7-88.3"/>
			<path class="st1" d="M72.8-78.8c-1.4,2.4-3.1,4.7-5,6.8c-5.9-6.3-9.5-14.7-9.5-23.8c0-9.1,3.6-17.4,9.5-23.8
				c-2.9,5.1-4.5,10.8-4.5,17C63.3-93.4,66.9-85.1,72.8-78.8"/>
			<path class="st2" d="M67.8-119.5c0,0.5,0,1,0,1.4c0,7.2,3.6,13.6,9.3,17.7c0.2,1.5,0.3,3.1,0.3,4.6c0,6.1-1.6,11.9-4.5,17
				c-5.9-6.3-9.5-14.7-9.5-23.8C63.3-108.7,64.9-114.5,67.8-119.5C67.7-119.5,67.8-119.5,67.8-119.5
				C67.8-119.5,67.8-119.5,67.8-119.5C67.8-119.5,67.8-119.5,67.8-119.5"/>
			<path class="st3" d="M65.5-109.2c0,8.3,4.3,15.7,11,20.7c-0.7,3.4-2,6.7-3.7,9.7c-5.9-6.3-9.5-14.7-9.5-23.8
				c0-6.1,1.6-11.9,4.5-17c0,0,0,0,0,0c0,0,0,0,0,0c0,0,0,0,0,0c0,0.1,0,0.1,0,0.2C66.3-116.2,65.5-112.8,65.5-109.2"/>
			<path class="st1" d="M63.4-106c-1.4,2.4-3.1,4.7-5,6.8c-5.9-6.3-9.5-14.7-9.5-23.8c0-9.1,3.6-17.4,9.5-23.8
				c-2.9,5.1-4.5,10.8-4.5,17C53.9-120.7,57.5-112.4,63.4-106"/>
			<path class="st2" d="M58.4-146.8c0,0.5,0,1,0,1.4c0,7.2,3.6,13.6,9.3,17.7c0.2,1.5,0.3,3.1,0.3,4.6c0,6.1-1.6,11.9-4.5,17
				c-5.9-6.3-9.5-14.7-9.5-23.8C53.9-135.9,55.5-141.7,58.4-146.8C58.3-146.7,58.3-146.8,58.4-146.8
				C58.3-146.8,58.4-146.8,58.4-146.8C58.4-146.8,58.4-146.8,58.4-146.8"/>
			<path class="st3" d="M56.1-136.4c0,8.3,4.3,15.7,11,20.7c-0.7,3.4-2,6.7-3.7,9.7c-5.9-6.3-9.5-14.7-9.5-23.8
				c0-6.1,1.6-11.9,4.5-17c0,0,0,0,0,0c0,0,0,0,0,0c0,0,0,0,0,0c0,0.1,0,0.1,0,0.2C56.9-143.4,56.1-140,56.1-136.4"/>
			<path class="st1" d="M91-78.8c-1.4,2.4-3.1,4.7-5,6.8c-5.9-6.3-9.5-14.7-9.5-23.8c0-9.1,3.6-17.4,9.5-23.8
				c-2.9,5.1-4.5,10.8-4.5,17C81.5-93.4,85.1-85.1,91-78.8"/>
			<path class="st2" d="M86-119.5c0,0.5,0,1,0,1.4c0,7.2,3.6,13.6,9.3,17.7c0.2,1.5,0.3,3.1,0.3,4.6c0,6.1-1.6,11.9-4.5,17
				c-5.9-6.3-9.5-14.7-9.5-23.8C81.5-108.7,83.1-114.5,86-119.5C86-119.5,86-119.5,86-119.5C86-119.5,86-119.5,86-119.5
				C86-119.5,86-119.5,86-119.5"/>
			<path class="st3" d="M83.8-109.2c0,8.3,4.3,15.7,11,20.7c-0.7,3.4-2,6.7-3.7,9.7c-5.9-6.3-9.5-14.7-9.5-23.8
				c0-6.1,1.6-11.9,4.5-17c0,0,0,0,0,0c0,0,0,0,0,0c0,0,0,0,0,0c0,0.1,0,0.1,0,0.2C84.5-116.2,83.7-112.8,83.8-109.2"/>
			<path class="st1" d="M81.6-106c-1.4,2.4-3.1,4.7-5,6.8c-5.9-6.3-9.5-14.7-9.5-23.8c0-9.1,3.6-17.4,9.5-23.8
				c-2.9,5.1-4.5,10.8-4.5,17C72.1-120.7,75.7-112.4,81.6-106"/>
			<path class="st2" d="M76.6-146.8c0,0.5,0,1,0,1.4c0,7.2,3.6,13.6,9.3,17.7c0.2,1.5,0.3,3.1,0.3,4.6c0,6.1-1.6,11.9-4.5,17
				c-5.9-6.3-9.5-14.7-9.5-23.8C72.1-135.9,73.7-141.7,76.6-146.8C76.6-146.7,76.6-146.8,76.6-146.8
				C76.6-146.8,76.6-146.8,76.6-146.8C76.6-146.8,76.6-146.8,76.6-146.8"/>
			<path class="st3" d="M74.3-136.4c0,8.3,4.3,15.7,11,20.7c-0.7,3.4-2,6.7-3.7,9.7c-5.9-6.3-9.5-14.7-9.5-23.8
				c0-6.1,1.6-11.9,4.5-17c0,0,0,0,0,0c0,0,0,0,0,0c0,0,0,0,0,0c0,0.1,0,0.1,0,0.2C75.1-143.4,74.3-140,74.3-136.4"/>
			<path class="st1" d="M91.2-30.7c-1.4,2.4-3.1,4.7-5,6.8c-5.9-6.3-9.5-14.7-9.5-23.8c0-9.1,3.6-17.4,9.5-23.8
				c-2.9,5.1-4.5,10.8-4.5,17C81.7-45.4,85.3-37.1,91.2-30.7"/>
			<path class="st2" d="M86.2-71.5c0,0.5,0,1,0,1.4c0,7.2,3.6,13.6,9.3,17.7c0.2,1.5,0.3,3.1,0.3,4.6c0,6.1-1.6,11.9-4.5,17
				c-5.9-6.3-9.5-14.7-9.5-23.8C81.7-60.6,83.3-66.4,86.2-71.5C86.2-71.5,86.2-71.5,86.2-71.5C86.2-71.5,86.2-71.5,86.2-71.5
				C86.2-71.5,86.2-71.5,86.2-71.5"/>
			<path class="st3" d="M83.9-61.1c0,8.3,4.3,15.7,11,20.7c-0.7,3.4-2,6.7-3.7,9.7c-5.9-6.3-9.5-14.7-9.5-23.8
				c0-6.1,1.6-11.9,4.5-17c0,0,0,0,0,0c0,0,0,0,0,0c0,0,0,0,0,0c0,0.1,0,0.1,0,0.2C84.7-68.1,83.9-64.7,83.9-61.1"/>
			<path class="st1" d="M81.8-58c-1.4,2.4-3.1,4.7-5,6.8c-5.9-6.3-9.5-14.7-9.5-23.8c0-9.1,3.6-17.4,9.5-23.8
				c-2.9,5.1-4.5,10.8-4.5,17C72.3-72.6,75.9-64.3,81.8-58"/>
			<path class="st2" d="M76.8-98.7c0,0.5,0,1,0,1.4c0,7.2,3.6,13.6,9.3,17.7c0.2,1.5,0.3,3.1,0.3,4.6c0,6.1-1.6,11.9-4.5,17
				c-5.9-6.3-9.5-14.7-9.5-23.8C72.3-87.9,73.9-93.6,76.8-98.7C76.8-98.7,76.8-98.7,76.8-98.7C76.8-98.7,76.8-98.7,76.8-98.7
				C76.8-98.7,76.8-98.7,76.8-98.7"/>
			<path class="st3" d="M74.5-88.3c0,8.3,4.3,15.7,11,20.7c-0.7,3.4-2,6.7-3.7,9.7c-5.9-6.3-9.5-14.7-9.5-23.8
				c0-6.1,1.6-11.9,4.5-17c0,0,0,0,0,0c0,0,0,0,0,0c0,0,0,0,0,0c0,0.1,0,0.1,0,0.2C75.3-95.4,74.5-91.9,74.5-88.3"/>
			<path class="st1" d="M99.9-58c-1.4,2.4-3.1,4.7-5,6.8c-5.9-6.3-9.5-14.7-9.5-23.8c0-9.1,3.6-17.4,9.5-23.8
				c-2.9,5.1-4.5,10.8-4.5,17C90.4-72.6,94-64.3,99.9-58"/>
			<path class="st2" d="M94.8-98.7c0,0.5,0,1,0,1.4c0,7.2,3.6,13.6,9.3,17.7c0.2,1.5,0.3,3.1,0.3,4.6c0,6.1-1.6,11.9-4.5,17
				c-5.9-6.3-9.5-14.7-9.5-23.8C90.3-87.9,92-93.6,94.8-98.7C94.8-98.7,94.8-98.7,94.8-98.7C94.8-98.7,94.8-98.7,94.8-98.7
				C94.8-98.7,94.8-98.7,94.8-98.7"/>
			<path class="st3" d="M92.6-88.3c0,8.3,4.3,15.7,11,20.7c-0.7,3.4-2,6.7-3.7,9.7c-5.9-6.3-9.5-14.7-9.5-23.8
				c0-6.1,1.6-11.9,4.5-17c0,0,0,0,0,0c0,0,0,0,0,0c0,0,0,0,0,0c0,0.1,0,0.1,0,0.2C93.4-95.4,92.6-91.9,92.6-88.3"/>
			<path class="st1" d="M99.9-106c-1.4,2.4-3.1,4.7-5,6.8c-5.9-6.3-9.5-14.7-9.5-23.8c0-9.1,3.6-17.4,9.5-23.8
				c-2.9,5.1-4.5,10.8-4.5,17C90.4-120.7,94-112.4,99.9-106"/>
			<path class="st2" d="M94.8-146.8c0,0.5,0,1,0,1.4c0,7.2,3.6,13.6,9.3,17.7c0.2,1.5,0.3,3.1,0.3,4.6c0,6.1-1.6,11.9-4.5,17
				c-5.9-6.3-9.5-14.7-9.5-23.8C90.3-135.9,92-141.7,94.8-146.8C94.8-146.7,94.8-146.8,94.8-146.8C94.8-146.8,94.8-146.8,94.8-146.8
				C94.8-146.8,94.8-146.8,94.8-146.8"/>
			<path class="st3" d="M92.6-136.4c0,8.3,4.3,15.7,11,20.7c-0.7,3.4-2,6.7-3.7,9.7c-5.9-6.3-9.5-14.7-9.5-23.8
				c0-6.1,1.6-11.9,4.5-17c0,0,0,0,0,0c0,0,0,0,0,0c0,0,0,0,0,0c0,0.1,0,0.1,0,0.2C93.4-143.4,92.6-140,92.6-136.4"/>
			<path class="st1" d="M19.3-30.7c-1.4,2.4-3.1,4.7-5,6.8c-5.9-6.3-9.5-14.7-9.5-23.8c0-9.1,3.6-17.4,9.5-23.8
				c-2.9,5.1-4.5,10.8-4.5,17C9.7-45.4,13.3-37.1,19.3-30.7"/>
			<path class="st2" d="M14.2-71.5c0,0.5,0,1,0,1.4c0,7.2,3.6,13.6,9.3,17.7c0.2,1.5,0.3,3.1,0.3,4.6c0,6.1-1.6,11.9-4.5,17
				c-5.9-6.3-9.5-14.7-9.5-23.8C9.7-60.6,11.3-66.4,14.2-71.5C14.2-71.5,14.2-71.5,14.2-71.5C14.2-71.5,14.2-71.5,14.2-71.5
				C14.2-71.5,14.2-71.5,14.2-71.5"/>
			<path class="st3" d="M12-61.1c0,8.3,4.3,15.7,11,20.7c-0.7,3.4-2,6.7-3.7,9.7c-5.9-6.3-9.5-14.7-9.5-23.8c0-6.1,1.6-11.9,4.5-17
				c0,0,0,0,0,0c0,0,0,0,0,0c0,0,0,0,0,0c0,0.1,0,0.1,0,0.2C12.8-68.1,12-64.7,12-61.1"/>
			<path class="st2" d="M4.8-98.7c0,0.5,0,1,0,1.4c0,7.2,3.6,13.6,9.3,17.7c0.2,1.5,0.3,3.1,0.3,4.6c0,6.1-1.6,11.9-4.5,17
				c-5.9-6.3-9.5-14.7-9.5-23.8C0.3-87.9,1.9-93.6,4.8-98.7C4.8-98.7,4.8-98.7,4.8-98.7C4.8-98.7,4.8-98.7,4.8-98.7
				C4.8-98.7,4.8-98.7,4.8-98.7"/>
			<path class="st1" d="M18.9-78.8c-1.4,2.4-3.1,4.7-5,6.8C8-78.3,4.4-86.6,4.4-95.7c0-9.1,3.6-17.4,9.5-23.8
				c-2.9,5.1-4.5,10.8-4.5,17C9.4-93.4,13-85.1,18.9-78.8"/>
			<path class="st2" d="M13.9-119.5c0,0.5,0,1,0,1.4c0,7.2,3.6,13.6,9.3,17.7c0.2,1.5,0.3,3.1,0.3,4.6c0,6.1-1.6,11.9-4.5,17
				c-5.9-6.3-9.5-14.7-9.5-23.8C9.4-108.7,11-114.5,13.9-119.5C13.9-119.5,13.9-119.5,13.9-119.5C13.9-119.5,13.9-119.5,13.9-119.5
				C13.9-119.5,13.9-119.5,13.9-119.5"/>
			<path class="st3" d="M11.7-109.2c0,8.3,4.3,15.7,11,20.7c-0.7,3.4-2,6.7-3.7,9.7c-5.9-6.3-9.5-14.7-9.5-23.8
				c0-6.1,1.6-11.9,4.5-17c0,0,0,0,0,0c0,0,0,0,0,0c0,0,0,0,0,0c0,0.1,0,0.1,0,0.2C12.4-116.2,11.6-112.8,11.7-109.2"/>
			<path class="st2" d="M4.5-146.8c0,0.5,0,1,0,1.4c0,7.2,3.6,13.6,9.3,17.7c0.2,1.5,0.3,3.1,0.3,4.6c0,6.1-1.6,11.9-4.5,17
				C3.6-112.3,0-120.7,0-129.8C0-135.9,1.6-141.7,4.5-146.8C4.5-146.7,4.5-146.8,4.5-146.8C4.5-146.8,4.5-146.8,4.5-146.8
				C4.5-146.8,4.5-146.8,4.5-146.8"/>
			<path class="st1" d="M37.2-78.8c-1.4,2.4-3.1,4.7-5,6.8c-5.9-6.3-9.5-14.7-9.5-23.8c0-9.1,3.6-17.4,9.5-23.8
				c-2.9,5.1-4.5,10.8-4.5,17C27.7-93.4,31.3-85.1,37.2-78.8"/>
			<path class="st2" d="M32.1-119.5c0,0.5,0,1,0,1.4c0,7.2,3.6,13.6,9.3,17.7c0.2,1.5,0.3,3.1,0.3,4.6c0,6.1-1.6,11.9-4.5,17
				c-5.9-6.3-9.5-14.7-9.5-23.8C27.6-108.7,29.3-114.5,32.1-119.5C32.1-119.5,32.1-119.5,32.1-119.5
				C32.1-119.5,32.1-119.5,32.1-119.5C32.1-119.5,32.1-119.5,32.1-119.5"/>
			<path class="st3" d="M29.9-109.2c0,8.3,4.3,15.7,11,20.7c-0.7,3.4-2,6.7-3.7,9.7c-5.9-6.3-9.5-14.7-9.5-23.8
				c0-6.1,1.6-11.9,4.5-17c0,0,0,0,0,0c0,0,0,0,0,0c0,0,0,0,0,0c0,0.1,0,0.1,0,0.2C30.7-116.2,29.9-112.8,29.9-109.2"/>
			<path class="st1" d="M27.8-106c-1.4,2.4-3.1,4.7-5,6.8c-5.9-6.3-9.5-14.7-9.5-23.8c0-9.1,3.6-17.4,9.5-23.8
				c-2.9,5.1-4.5,10.8-4.5,17C18.3-120.7,21.9-112.4,27.8-106"/>
			<path class="st2" d="M22.7-146.8c0,0.5,0,1,0,1.4c0,7.2,3.6,13.6,9.3,17.7c0.2,1.5,0.3,3.1,0.3,4.6c0,6.1-1.6,11.9-4.5,17
				c-5.9-6.3-9.5-14.7-9.5-23.8C18.2-135.9,19.9-141.7,22.7-146.8C22.7-146.7,22.7-146.8,22.7-146.8
				C22.7-146.8,22.7-146.8,22.7-146.8C22.7-146.8,22.7-146.8,22.7-146.8"/>
			<path class="st3" d="M20.5-136.4c0,8.3,4.3,15.7,11,20.7c-0.7,3.4-2,6.7-3.7,9.7c-5.9-6.3-9.5-14.7-9.5-23.8
				c0-6.1,1.6-11.9,4.5-17c0,0,0,0,0,0c0,0,0,0,0,0c0,0,0,0,0,0c0,0.1,0,0.1,0,0.2C21.3-143.4,20.5-140,20.5-136.4"/>
			<path class="st1" d="M37.4-30.7c-1.4,2.4-3.1,4.7-5,6.8c-5.9-6.3-9.5-14.7-9.5-23.8c0-9.1,3.6-17.4,9.5-23.8
				c-2.9,5.1-4.5,10.8-4.5,17C27.8-45.4,31.4-37.1,37.4-30.7"/>
			<path class="st2" d="M32.3-71.5c0,0.5,0,1,0,1.4c0,7.2,3.6,13.6,9.3,17.7c0.2,1.5,0.3,3.1,0.3,4.6c0,6.1-1.6,11.9-4.5,17
				c-5.9-6.3-9.5-14.7-9.5-23.8C27.8-60.6,29.4-66.4,32.3-71.5C32.3-71.5,32.3-71.5,32.3-71.5C32.3-71.5,32.3-71.5,32.3-71.5
				C32.3-71.5,32.3-71.5,32.3-71.5"/>
			<path class="st3" d="M30.1-61.1c0,8.3,4.3,15.7,11,20.7c-0.7,3.4-2,6.7-3.7,9.7c-5.9-6.3-9.5-14.7-9.5-23.8
				c0-6.1,1.6-11.9,4.5-17c0,0,0,0,0,0c0,0,0,0,0,0c0,0,0,0,0,0c0,0.1,0,0.1,0,0.2C30.9-68.1,30.1-64.7,30.1-61.1"/>
			<path class="st1" d="M28-58c-1.4,2.4-3.1,4.7-5,6.8c-5.9-6.3-9.5-14.7-9.5-23.8c0-9.1,3.6-17.4,9.5-23.8
				c-2.9,5.1-4.5,10.8-4.5,17C18.4-72.6,22-64.3,28-58"/>
			<path class="st2" d="M22.9-98.7c0,0.5,0,1,0,1.4c0,7.2,3.6,13.6,9.3,17.7c0.2,1.5,0.3,3.1,0.3,4.6c0,6.1-1.6,11.9-4.5,17
				c-5.9-6.3-9.5-14.7-9.5-23.8C18.4-87.9,20-93.6,22.9-98.7C22.9-98.7,22.9-98.7,22.9-98.7C22.9-98.7,22.9-98.7,22.9-98.7
				C22.9-98.7,22.9-98.7,22.9-98.7"/>
			<path class="st3" d="M20.7-88.3c0,8.3,4.3,15.7,11,20.7c-0.7,3.4-2,6.7-3.7,9.7c-5.9-6.3-9.5-14.7-9.5-23.8
				c0-6.1,1.6-11.9,4.5-17c0,0,0,0,0,0c0,0,0,0,0,0c0,0,0,0,0,0c0,0.1,0,0.1,0,0.2C21.5-95.4,20.7-91.9,20.7-88.3"/>
			<path class="st1" d="M46-58c-1.4,2.4-3.1,4.7-5,6.8c-5.9-6.3-9.5-14.7-9.5-23.8c0-9.1,3.6-17.4,9.5-23.8
				c-2.9,5.1-4.5,10.8-4.5,17C36.5-72.6,40.1-64.3,46-58"/>
			<path class="st2" d="M41-98.7c0,0.5,0,1,0,1.4c0,7.2,3.6,13.6,9.3,17.7c0.2,1.5,0.3,3.1,0.3,4.6c0,6.1-1.6,11.9-4.5,17
				c-5.9-6.3-9.5-14.7-9.5-23.8C36.5-87.9,38.1-93.6,41-98.7C41-98.7,41-98.7,41-98.7C41-98.7,41-98.7,41-98.7
				C41-98.7,41-98.7,41-98.7"/>
			<path class="st3" d="M38.7-88.3c0,8.3,4.3,15.7,11,20.7C49-64.2,47.7-61,46-58c-5.9-6.3-9.5-14.7-9.5-23.8c0-6.1,1.6-11.9,4.5-17
				c0,0,0,0,0,0c0,0,0,0,0,0c0,0,0,0,0,0c0,0.1,0,0.1,0,0.2C39.5-95.4,38.7-91.9,38.7-88.3"/>
			<path class="st1" d="M46-106c-1.4,2.4-3.1,4.7-5,6.8c-5.9-6.3-9.5-14.7-9.5-23.8c0-9.1,3.6-17.4,9.5-23.8
				c-2.9,5.1-4.5,10.8-4.5,17C36.5-120.7,40.1-112.4,46-106"/>
			<path class="st2" d="M41-146.8c0,0.5,0,1,0,1.4c0,7.2,3.6,13.6,9.3,17.7c0.2,1.5,0.3,3.1,0.3,4.6c0,6.1-1.6,11.9-4.5,17
				c-5.9-6.3-9.5-14.7-9.5-23.8C36.5-135.9,38.1-141.7,41-146.8C41-146.7,41-146.8,41-146.8C41-146.8,41-146.8,41-146.8
				C41-146.8,41-146.8,41-146.8"/>
			<path class="st3" d="M38.7-136.4c0,8.3,4.3,15.7,11,20.7c-0.7,3.4-2,6.7-3.7,9.7c-5.9-6.3-9.5-14.7-9.5-23.8
				c0-6.1,1.6-11.9,4.5-17c0,0,0,0,0,0c0,0,0,0,0,0c0,0,0,0,0,0c0,0.1,0,0.1,0,0.2C39.5-143.4,38.7-140,38.7-136.4"/>
			<path class="st1" d="M99.6-6.8c-1.4,2.4-3.1,4.7-5,6.8C88.6-6.3,85-14.7,85-23.8c0-9.1,3.6-17.4,9.5-23.8
				c-2.9,5.1-4.5,10.8-4.5,17C90-21.5,93.6-13.1,99.6-6.8"/>
			<path class="st2" d="M94.5-47.5c0,0.5,0,1,0,1.4c0,7.2,3.6,13.6,9.3,17.7c0.2,1.5,0.3,3.1,0.3,4.6c0,6.1-1.6,11.9-4.5,17
				C93.6-13.1,90-21.5,90-30.6C90-36.7,91.6-42.5,94.5-47.5C94.5-47.5,94.5-47.5,94.5-47.5C94.5-47.5,94.5-47.5,94.5-47.5
				C94.5-47.5,94.5-47.5,94.5-47.5"/>
			<path class="st3" d="M92.3-37.2c0,8.3,4.3,15.7,11,20.7c-0.7,3.4-2,6.7-3.7,9.7C93.6-13.1,90-21.5,90-30.6c0-6.1,1.6-11.9,4.5-17
				c0,0,0,0,0,0c0,0,0,0,0,0c0,0,0,0,0,0c0,0.1,0,0.1,0,0.2C93.1-44.2,92.3-40.8,92.3-37.2"/>
			<path class="st1" d="M117.3-6.8c-1.4,2.4-3.1,4.7-5,6.8c-5.9-6.3-9.5-14.7-9.5-23.8c0-9.1,3.6-17.4,9.5-23.8
				c-2.9,5.1-4.5,10.8-4.5,17C107.7-21.5,111.3-13.1,117.3-6.8"/>
			<path class="st2" d="M112.2-47.5c0,0.5,0,1,0,1.4c0,7.2,3.6,13.6,9.3,17.7c0.2,1.5,0.3,3.1,0.3,4.6c0,6.1-1.6,11.9-4.5,17
				c-5.9-6.3-9.5-14.7-9.5-23.8C107.7-36.7,109.3-42.5,112.2-47.5C112.2-47.5,112.2-47.5,112.2-47.5
				C112.2-47.5,112.2-47.5,112.2-47.5C112.2-47.5,112.2-47.5,112.2-47.5"/>
			<path class="st3" d="M110-37.2c0,8.3,4.3,15.7,11,20.7c-0.7,3.4-2,6.7-3.7,9.7c-5.9-6.3-9.5-14.7-9.5-23.8c0-6.1,1.6-11.9,4.5-17
				c0,0,0,0,0,0c0,0,0,0,0,0c0,0,0,0,0,0c0,0.1,0,0.1,0,0.2C110.8-44.2,110-40.8,110-37.2"/>
			<path class="st1" d="M135.5-6.8c-1.4,2.4-3.1,4.7-5,6.8c-5.9-6.3-9.5-14.7-9.5-23.8c0-9.1,3.6-17.4,9.5-23.8
				c-2.9,5.1-4.5,10.8-4.5,17C126-21.5,129.6-13.1,135.5-6.8"/>
			<path class="st1" d="M45.7-6.8c-1.4,2.4-3.1,4.7-5,6.8c-5.9-6.3-9.5-14.7-9.5-23.8c0-9.1,3.6-17.4,9.5-23.8
				c-2.9,5.1-4.5,10.8-4.5,17C36.2-21.5,39.8-13.1,45.7-6.8"/>
			<path class="st2" d="M40.7-47.5c0,0.5,0,1,0,1.4c0,7.2,3.6,13.6,9.3,17.7c0.2,1.5,0.3,3.1,0.3,4.6c0,6.1-1.6,11.9-4.5,17
				c-5.9-6.3-9.5-14.7-9.5-23.8C36.2-36.7,37.8-42.5,40.7-47.5C40.6-47.5,40.6-47.5,40.7-47.5C40.7-47.5,40.7-47.5,40.7-47.5
				C40.7-47.5,40.7-47.5,40.7-47.5"/>
			<path class="st3" d="M38.4-37.2c0,8.3,4.3,15.7,11,20.7c-0.7,3.4-2,6.7-3.7,9.7c-5.9-6.3-9.5-14.7-9.5-23.8
				c0-6.1,1.6-11.9,4.5-17c0,0,0,0,0,0c0,0,0,0,0,0c0,0,0,0,0,0c0,0.1,0,0.1,0,0.2C39.2-44.2,38.4-40.8,38.4-37.2"/>
			<path class="st1" d="M63.4-6.8c-1.4,2.4-3.1,4.7-5,6.8c-5.9-6.3-9.5-14.7-9.5-23.8c0-9.1,3.6-17.4,9.5-23.8
				c-2.9,5.1-4.5,10.8-4.5,17C53.9-21.5,57.5-13.1,63.4-6.8"/>
			<path class="st2" d="M58.4-47.5c0,0.5,0,1,0,1.4c0,7.2,3.6,13.6,9.3,17.7c0.2,1.5,0.3,3.1,0.3,4.6c0,6.1-1.6,11.9-4.5,17
				c-5.9-6.3-9.5-14.7-9.5-23.8C53.9-36.7,55.5-42.5,58.4-47.5C58.3-47.5,58.3-47.5,58.4-47.5C58.3-47.5,58.4-47.5,58.4-47.5
				C58.4-47.5,58.4-47.5,58.4-47.5"/>
			<path class="st3" d="M56.1-37.2c0,8.3,4.3,15.7,11,20.7c-0.7,3.4-2,6.7-3.7,9.7c-5.9-6.3-9.5-14.7-9.5-23.8
				c0-6.1,1.6-11.9,4.5-17c0,0,0,0,0,0c0,0,0,0,0,0c0,0,0,0,0,0c0,0.1,0,0.1,0,0.2C56.9-44.2,56.1-40.8,56.1-37.2"/>
			<path class="st1" d="M81.6-6.8c-1.4,2.4-3.1,4.7-5,6.8c-5.9-6.3-9.5-14.7-9.5-23.8c0-9.1,3.6-17.4,9.5-23.8
				c-2.9,5.1-4.5,10.8-4.5,17C72.1-21.5,75.7-13.1,81.6-6.8"/>
			<path class="st2" d="M76.6-47.5c0,0.5,0,1,0,1.4c0,7.2,3.6,13.6,9.3,17.7c0.2,1.5,0.3,3.1,0.3,4.6c0,6.1-1.6,11.9-4.5,17
				c-5.9-6.3-9.5-14.7-9.5-23.8C72.1-36.7,73.7-42.5,76.6-47.5C76.6-47.5,76.6-47.5,76.6-47.5C76.6-47.5,76.6-47.5,76.6-47.5
				C76.6-47.5,76.6-47.5,76.6-47.5"/>
			<path class="st3" d="M74.3-37.2c0,8.3,4.3,15.7,11,20.7c-0.7,3.4-2,6.7-3.7,9.7c-5.9-6.3-9.5-14.7-9.5-23.8
				c0-6.1,1.6-11.9,4.5-17c0,0,0,0,0,0c0,0,0,0,0,0c0,0,0,0,0,0c0,0.1,0,0.1,0,0.2C75.1-44.2,74.3-40.8,74.3-37.2"/>
			<path class="st1" d="M99.9-6.8c-1.4,2.4-3.1,4.7-5,6.8c-5.9-6.3-9.5-14.7-9.5-23.8c0-9.1,3.6-17.4,9.5-23.8
				c-2.9,5.1-4.5,10.8-4.5,17C90.4-21.5,94-13.1,99.9-6.8"/>
			<path class="st2" d="M94.8-47.5c0,0.5,0,1,0,1.4c0,7.2,3.6,13.6,9.3,17.7c0.2,1.5,0.3,3.1,0.3,4.6c0,6.1-1.6,11.9-4.5,17
				c-5.9-6.3-9.5-14.7-9.5-23.8C90.3-36.7,92-42.5,94.8-47.5C94.8-47.5,94.8-47.5,94.8-47.5C94.8-47.5,94.8-47.5,94.8-47.5
				C94.8-47.5,94.8-47.5,94.8-47.5"/>
			<path class="st3" d="M92.6-37.2c0,8.3,4.3,15.7,11,20.7c-0.7,3.4-2,6.7-3.7,9.7c-5.9-6.3-9.5-14.7-9.5-23.8
				c0-6.1,1.6-11.9,4.5-17c0,0,0,0,0,0c0,0,0,0,0,0c0,0,0,0,0,0c0,0.1,0,0.1,0,0.2C93.4-44.2,92.6-40.8,92.6-37.2"/>
			<path class="st2" d="M4.5-47.5c0,0.5,0,1,0,1.4c0,7.2,3.6,13.6,9.3,17.7c0.2,1.5,0.3,3.1,0.3,4.6c0,6.1-1.6,11.9-4.5,17
				C3.6-13.1,0-21.5,0-30.6C0-36.7,1.6-42.5,4.5-47.5C4.5-47.5,4.5-47.5,4.5-47.5C4.5-47.5,4.5-47.5,4.5-47.5
				C4.5-47.5,4.5-47.5,4.5-47.5"/>
			<path class="st1" d="M27.8-6.8c-1.4,2.4-3.1,4.7-5,6.8c-5.9-6.3-9.5-14.7-9.5-23.8c0-9.1,3.6-17.4,9.5-23.8
				c-2.9,5.1-4.5,10.8-4.5,17C18.3-21.5,21.9-13.1,27.8-6.8"/>
			<path class="st2" d="M22.7-47.5c0,0.5,0,1,0,1.4c0,7.2,3.6,13.6,9.3,17.7c0.2,1.5,0.3,3.1,0.3,4.6c0,6.1-1.6,11.9-4.5,17
				c-5.9-6.3-9.5-14.7-9.5-23.8C18.2-36.7,19.9-42.5,22.7-47.5C22.7-47.5,22.7-47.5,22.7-47.5C22.7-47.5,22.7-47.5,22.7-47.5
				C22.7-47.5,22.7-47.5,22.7-47.5"/>
			<path class="st3" d="M20.5-37.2c0,8.3,4.3,15.7,11,20.7c-0.7,3.4-2,6.7-3.7,9.7c-5.9-6.3-9.5-14.7-9.5-23.8
				c0-6.1,1.6-11.9,4.5-17c0,0,0,0,0,0c0,0,0,0,0,0c0,0,0,0,0,0c0,0.1,0,0.1,0,0.2C21.3-44.2,20.5-40.8,20.5-37.2"/>
			<path class="st1" d="M46-6.8C44.6-4.3,43-2.1,41,0c-5.9-6.3-9.5-14.7-9.5-23.8c0-9.1,3.6-17.4,9.5-23.8c-2.9,5.1-4.5,10.8-4.5,17
				C36.5-21.5,40.1-13.1,46-6.8"/>
			<path class="st2" d="M41-47.5c0,0.5,0,1,0,1.4c0,7.2,3.6,13.6,9.3,17.7c0.2,1.5,0.3,3.1,0.3,4.6c0,6.1-1.6,11.9-4.5,17
				c-5.9-6.3-9.5-14.7-9.5-23.8C36.5-36.7,38.1-42.5,41-47.5C41-47.5,41-47.5,41-47.5C41-47.5,41-47.5,41-47.5
				C41-47.5,41-47.5,41-47.5"/>
			<path class="st3" d="M38.7-37.2c0,8.3,4.3,15.7,11,20.7c-0.7,3.4-2,6.7-3.7,9.7c-5.9-6.3-9.5-14.7-9.5-23.8
				c0-6.1,1.6-11.9,4.5-17c0,0,0,0,0,0c0,0,0,0,0,0c0,0,0,0,0,0c0,0.1,0,0.1,0,0.2C39.5-44.2,38.7-40.8,38.7-37.2"/>
		</g>
	</g>
</pattern>
<g>
	<defs>
		<rect id="SVGID_3_" width="459.9" height="90.1"/>
	</defs>
	<clipPath id="SVGID_4_">
		<use xlink:href="#SVGID_3_"  style="overflow:visible;"/>
	</clipPath>
	<rect y="0" class="st4" width="459.9" height="90.1"/>
	<g class="st5">
		<defs>
			<rect id="SVGID_5_" y="0" width="459.9" height="90.1"/>
		</defs>
		<clipPath id="SVGID_6_">
			<use xlink:href="#SVGID_5_"  style="overflow:visible;"/>
		</clipPath>
		<g class="st6">
			<g>
				<defs>
					<rect id="SVGID_7_" y="0" width="459.9" height="90.1"/>
				</defs>
				<clipPath id="SVGID_8_">
					<use xlink:href="#SVGID_7_"  style="overflow:visible;"/>
				</clipPath>
				<pattern  id="SVGID_9_" xlink:href="#Unnamed_Pattern" patternTransform="matrix(0.6359 0 0 -0.6359 -2976.7634 -3590.6553)">
				</pattern>
				<rect y="0" class="st7" width="459.9" height="90.1"/>
			</g>
		</g>
	</g>
</g>
</svg>
