<svg height="464pt" viewBox="-136 0 464 464" width="464pt" xmlns="http://www.w3.org/2000/svg" fill="#2c2569"><path d="m76.625 72.734375c8.878906-4.09375 18.925781-8.734375 38.023438-8.734375 19.535156 0 29.273437 4.289062 38.679687 8.433594 4.617187 2.03125 9.078125 3.992187 14.886719 5.445312l-22.246094-77.878906h-99.9375l-21.03125 73.625c5.457031 3.878906 11.472656 6.375 20.304688 6.375 15.574218 0 22.871093-3.367188 31.320312-7.265625zm0 0"/><path d="m179.886719 452.71875-47.382813-14.207031c-17.046875-5.121094-28.503906-20.519531-28.503906-38.328125v-76.589844c0-26.027344 14.871094-50.503906 38.824219-63.890625.457031-.253906.855469-.582031 1.304687-.847656-15.273437 3.34375-31.570312 5.144531-48.128906 5.144531s-32.855469-1.800781-48.121094-5.144531c.449219.265625.847656.59375 1.304688.847656 23.945312 13.386719 38.816406 37.863281 38.816406 63.890625v76.589844c0 17.808594-11.457031 33.199218-28.503906 38.320312l-47.390625 14.207032c-2.457031.746093-4.105469 2.960937-4.105469 5.527343 0 3.167969 2.585938 5.761719 5.761719 5.761719h164.476562c3.167969 0 5.761719-2.585938 5.761719-5.761719 0-2.566406-1.648438-4.78125-4.113281-5.519531zm0 0"/><path d="m96 248c28.257812 0 55.574219-5.488281 77.296875-15.414062 11.871094-16.1875 18.703125-35.882813 18.703125-56.585938 0-9.886719-1.375-19.703125-4.089844-29.175781l-14.765625-51.695313c-11.878906-1.714844-19.472656-5.058594-26.273437-8.050781-8.613282-3.796875-16.046875-7.078125-32.222656-7.078125-15.578126 0-22.871094 3.367188-31.320313 7.265625-8.871094 4.09375-18.929687 8.734375-38.023437 8.734375-10.625 0-18.570313-2.65625-24.914063-6.257812l-16.300781 57.074218c-2.714844 9.480469-4.089844 19.296875-4.089844 29.183594 0 20.703125 6.839844 40.40625 18.710938 56.59375 21.714843 9.917969 49.023437 15.40625 77.289062 15.40625zm48-96c4.414062 0 8 3.585938 8 8s-3.585938 8-8 8-8-3.585938-8-8 3.585938-8 8-8zm-8 56c0 4.414062-3.585938 8-8 8s-8-3.585938-8-8 3.585938-8 8-8 8 3.585938 8 8zm-16-104c4.414062 0 8 3.585938 8 8s-3.585938 8-8 8-8-3.585938-8-8 3.585938-8 8-8zm-24 32c4.414062 0 8 3.585938 8 8s-3.585938 8-8 8-8-3.585938-8-8 3.585938-8 8-8zm-24 48c4.414062 0 8 3.585938 8 8s-3.585938 8-8 8-8-3.585938-8-8 3.585938-8 8-8zm-32-16c4.414062 0 8 3.585938 8 8s-3.585938 8-8 8-8-3.585938-8-8 3.585938-8 8-8zm0 0"/></svg>