<?xml version="1.0" encoding="utf-8"?>
<!-- Generator: Adobe Illustrator 23.0.1, SVG Export Plug-In . SVG Version: 6.00 Build 0)  -->
<svg version="1.1" id="Layer_1" xmlns="http://www.w3.org/2000/svg" xmlns:xlink="http://www.w3.org/1999/xlink" x="0px" y="0px"
	 viewBox="0 0 380.8 380.8" style="enable-background:new 0 0 380.8 380.8;" xml:space="preserve">
<g fill="#fff">
	<g>
		<path d="M335,237.2c-6.2,0-8.9,0-15,0v-1.7c18.7-5.3,32.5-22.6,32.5-43v-29.8c0,0,0,0,0,0v-7.7c0-6.2-1.3-12-3.5-17.4
			c-6.8-16.1-22.7-27.3-41.2-27.3H280h0c0,0,0,0,0,0c-6.8,0-13.4,1.5-19.3,4.4c-2.4-27.2-25.3-48.6-53.2-48.6h-33.9h-0.4
			c-27.8,0-50.7,21.4-53.2,48.6c-5.9-2.9-12.5-4.4-19.3-4.4H73.4h-0.3h0c-18.5,0-34.4,11.3-41.2,27.3c-4.1,9.6-3.5,11.3-3.5,54.8
			c0,20.2,13.6,37.7,32.5,43v1.7c-6.1,0-8.8,0-15,0C20.6,237.2,0,257.8,0,283.1v24.1c0,4.1,3.4,7.5,7.5,7.5c3,0,358.8,0,365.8,0
			c4.1,0,7.5-3.4,7.5-7.5v-24.1C380.8,257.8,360.3,237.2,335,237.2z M307.8,125.4L307.8,125.4c16.4,0,29.7,13.3,29.7,29.7v0.2h-12.6
			c-18,0-33.1-12.6-36.6-29.9H307.8z M260.9,132.4c3.4-2.8,7.3-4.9,11.5-6c-1.3,8.1-5.4,15.4-11.5,20.6V132.4z M260.9,164.9
			c8.4-4.3,15.2-10.8,19.9-18.6c9.4,14.5,25.6,23.9,44,23.9h12.6v22.3c0,15.1-11.4,27.7-26.1,29.5c-6.4,0.5-34.1,0.1-35.1,0
			c-13.2-1.7-23.5-11.9-25.5-24.8C257.7,187.5,260.9,176.8,260.9,164.9z M207.5,81.1c19.6,0,38.4,15,38.4,40.3h-17.3
			c-23.5,0-43.1-17-47.1-39.4c-0.1-0.3-0.1-0.6-0.2-0.9C181.4,81.1,207.5,81.1,207.5,81.1z M165.9,81.8c-1.7,17.3-13.7,32.5-31,37.8
			C134.9,100.6,148.5,85.2,165.9,81.8z M134.9,135.1c16.6-3.7,31.2-14.8,39.3-29.9c11.2,19.4,31.9,31.3,54.4,31.3h17.3V160l0,0
			c0,6.3,1,18.3-8.8,30.1l0,0c-6.3,7.6-15,12.4-24.7,13.6c0,0,0,0,0,0c-4,0.5-39.7,0.5-44,0c-9.7-1.2-18.5-6.1-24.7-13.6
			C133,177.3,134.9,167.1,134.9,135.1z M247.4,223.1c-7.1-0.8-11.8-0.5-26.5-0.5v-5.2c6.4-1.6,12.4-4.4,17.7-8.2
			C240.6,214.4,243.6,219.1,247.4,223.1z M213.4,237.6h5.1c-7.8,29.1-48.4,28.2-56.1,0.2c0-0.1,0-0.1-0.1-0.2h5.1
			c4.1,0,7.5-3.4,7.5-7.5v-11.1c8.3,0.2,21.7,0.2,30.9,0v11.1C205.9,234.3,209.2,237.6,213.4,237.6z M142.3,209.2
			c5.3,3.8,11.3,6.6,17.7,8.2v5.2c-15.5,0-19.6-0.3-26.6,0.5C137.2,219.1,140.2,214.4,142.3,209.2z M100.8,125.4
			c7.1,0,13.8,2.5,19.1,7v22.9c-21.3,0-35.3-13.3-38.6-29.9C81.3,125.4,100.8,125.4,100.8,125.4z M65.4,126.4
			c-1.9,12.3-10.5,22.5-22,26.8C44.3,140.2,53.4,129.6,65.4,126.4z M43.4,192.6v-23.7c12.9-3.2,23.8-11.5,30.5-22.6
			c9.3,14.5,24.9,24,46.2,24c0.8,9.9,4.5,19.4,10,26.9c-2,12.9-12.4,23.2-25.6,24.8h0c-0.1,0-0.2,0-0.3,0c-4.5,0.4-31.9,0.3-35,0
			C54.5,220.1,43.4,207.5,43.4,192.6z M84.9,299.7H15v-16.6c0-17,13.8-30.9,30.8-30.9h4.7c3.4,16.3,17.4,28.6,34.3,29.6
			C84.9,281.8,84.9,299.7,84.9,299.7z M98,241.9c-6,7.1-10.3,15.8-12.1,25c-4.6-0.2-8.8-1.8-12.2-4.4c-3.3-2.5-6.1-6.1-7.6-10.2h2.2
			c4.1,0,7.5-3.4,7.5-7.5v-7.5c7.6,0.1,15.1,0.1,22.2,0V241.9z M280.9,299.7h-181v-22.2c0-10.4,4.1-20.3,11.1-27.5
			c11.4-11.9,23.4-12.5,36-12.4c8.5,49.9,78.7,47.4,86.8,0c12.7-0.1,24.7,0.5,36,12.4c7,7.3,11,17.1,11,27.5V299.7z M282.8,241.9
			v-4.6c23.4,0.1,14.8,0,22.2,0v7.5c0,4.1,3.4,7.5,7.5,7.5h2.2c-1.4,3.9-4,7.6-7.6,10.2c-3.4,2.5-7.6,4.1-12.2,4.4
			C293.1,258,289,249.2,282.8,241.9z M365.8,299.7h-69.9v-17.9c16.8-0.9,30.9-13.2,34.3-29.6h4.7c17,0,30.9,13.8,30.9,30.9V299.7z"
			/>
	</g>
</g>
</svg>
