<?xml version="1.0" encoding="utf-8"?>
<!-- Generator: Adobe Illustrator 22.1.0, SVG Export Plug-In . SVG Version: 6.00 Build 0)  -->
<svg version="1.1" id="Layer_1" xmlns="http://www.w3.org/2000/svg" xmlns:xlink="http://www.w3.org/1999/xlink" x="0px" y="0px"
	 viewBox="0 0 284.5 201.4" style="enable-background:new 0 0 284.5 201.4;" xml:space="preserve">
<style type="text/css">
	.st0{fill:none;stroke:#26252B;stroke-miterlimit:10;}
	.st1{opacity:0.8;fill:none;stroke:#26252B;stroke-miterlimit:10;}
	.st2{fill:none;stroke:#26252B;stroke-linecap:round;stroke-linejoin:round;stroke-miterlimit:10;}
	.st3{opacity:0.8;fill:none;stroke:#26252B;stroke-linecap:round;stroke-linejoin:round;stroke-miterlimit:10;}
</style>
<path class="st0" d="M97.1,45.9c-3.3-6.2-7.4-11.9-12-17.1C71,44.8,62.4,65.8,62.4,88.7c0,22.9,8.6,43.8,22.8,59.8
	c-6.9-12.7-10.8-27.3-10.8-42.7C74.4,82.9,83,61.9,97.1,45.9z"/>
<path class="st0" d="M85.2,148.5c-0.1-1.2-0.1-2.4-0.1-3.6c0-18.1,8.7-34.2,22.1-44.5c0.5-3.8,0.8-7.7,0.8-11.7
	c0-15.5-3.9-30-10.8-42.7c-14.2,16-22.8,36.9-22.8,59.8C74.4,121.2,78.3,135.8,85.2,148.5C85.1,148.5,85.2,148.5,85.2,148.5
	C85.2,148.5,85.2,148.5,85.2,148.5C85.2,148.5,85.2,148.5,85.2,148.5z"/>
<path class="st1" d="M79.8,122.4c0-20.9,10.2-39.6,26.3-52.1c-1.8-8.6-4.8-16.8-8.9-24.4c-14.2,16-22.8,36.9-22.8,59.8
	c0,15.4,3.9,30,10.8,42.7c0,0,0,0,0,0c0,0,0,0,0,0c0,0,0,0,0,0c0-0.2,0-0.3,0-0.5C81.7,140.1,79.8,131.5,79.8,122.4z"/>
<path class="st2" d="M163.9,45.9c-3.3-6.2-7.4-11.9-12-17.1c-14.2,16-22.8,36.9-22.8,59.8c0,22.9,8.6,43.8,22.8,59.8
	c-6.9-12.7-10.8-27.3-10.8-42.7C141.1,82.9,149.7,61.9,163.9,45.9z"/>
<path class="st3" d="M163.9,78.6c-10.8,11.8-17.4,27.1-17.4,43.9c0,9.1,1.9,17.7,5.4,25.6c0,0.2,0,0.3,0,0.5c0,0,0,0,0,0
	c0,0,0,0,0,0c0,0,0,0,0,0c-6.9-12.7-10.8-27.3-10.8-42.7c0-17.4,5-33.7,13.6-47.5L163.9,78.6z"/>
<g>
	<path class="st2" d="M144,83.1c0.1-0.5,0.3-0.9,0.4-1.4C144.3,82.2,144.2,82.6,144,83.1z"/>
	<path class="st2" d="M154.2,92.2c-4.9,9.1-7.7,19.4-7.7,30.2c0,9.1,1.9,17.7,5.4,25.6c-0.1-1-0.1-2.1-0.1-3.1
		c0-14,5.2-26.9,13.8-36.7L154.2,92.2z"/>
	<path class="st2" d="M143.3,86.2c0.1-0.5,0.2-1,0.3-1.4C143.5,85.3,143.4,85.8,143.3,86.2z"/>
	<path class="st2" d="M145.1,79.5L145.1,79.5c-0.1,0.2-0.1,0.4-0.2,0.6C144.9,79.8,145,79.7,145.1,79.5z"/>
	<path class="st2" d="M142.1,92.6c0.1-0.5,0.2-0.9,0.2-1.4C142.2,91.7,142.2,92.1,142.1,92.6z"/>
	<path class="st2" d="M141.4,99.1c0-0.4,0.1-0.9,0.1-1.3C141.5,98.3,141.4,98.7,141.4,99.1z"/>
	<path class="st2" d="M142.6,89.4c0.1-0.5,0.2-1,0.3-1.4C142.8,88.5,142.7,88.9,142.6,89.4z"/>
	<path class="st2" d="M141.2,102.4c0-0.4,0-0.7,0.1-1.1C141.2,101.7,141.2,102.1,141.2,102.4z"/>
	<path class="st2" d="M141.7,95.9c0.1-0.5,0.1-0.9,0.2-1.4C141.8,94.9,141.7,95.4,141.7,95.9z"/>
</g>
</svg>
