<?xml version="1.0" encoding="utf-8"?>
<!-- Generator: Adobe Illustrator 22.1.0, SVG Export Plug-In . SVG Version: 6.00 Build 0)  -->
<svg version="1.1" id="Layer_1" xmlns="http://www.w3.org/2000/svg" xmlns:xlink="http://www.w3.org/1999/xlink" x="0px" y="0px"
	 viewBox="0 0 284.5 201.4" style="enable-background:new 0 0 284.5 201.4;" xml:space="preserve">
<style type="text/css">
	.st0{fill:none;stroke:#26252B;stroke-miterlimit:10;}
	.st1{opacity:0.8;fill:none;stroke:#26252B;stroke-miterlimit:10;}
</style>
<path class="st0" d="M97.1,45.9c-3.3-6.2-7.4-11.9-12-17.1C71,44.8,62.4,65.8,62.4,88.7c0,22.9,8.6,43.8,22.8,59.8
	c-6.9-12.7-10.8-27.3-10.8-42.7C74.4,82.9,83,61.9,97.1,45.9z"/>
<path class="st0" d="M85.2,148.5c-0.1-1.2-0.1-2.4-0.1-3.6c0-18.1,8.7-34.2,22.1-44.5c0.5-3.8,0.8-7.7,0.8-11.7
	c0-15.5-3.9-30-10.8-42.7c-14.2,16-22.8,36.9-22.8,59.8C74.4,121.2,78.3,135.8,85.2,148.5C85.1,148.5,85.2,148.5,85.2,148.5
	C85.2,148.5,85.2,148.5,85.2,148.5C85.2,148.5,85.2,148.5,85.2,148.5z"/>
<path class="st1" d="M79.8,122.4c0-20.9,10.2-39.6,26.3-52.1c-1.8-8.6-4.8-16.8-8.9-24.4c-14.2,16-22.8,36.9-22.8,59.8
	c0,15.4,3.9,30,10.8,42.7c0,0,0,0,0,0c0,0,0,0,0,0c0,0,0,0,0,0c0-0.2,0-0.3,0-0.5C81.7,140.1,79.8,131.5,79.8,122.4z"/>
</svg>
