<?xml version="1.0" encoding="utf-8"?>
<!-- Generator: Adobe Illustrator 22.1.0, SVG Export Plug-In . SVG Version: 6.00 Build 0)  -->
<svg version="1.1" id="Layer_1" xmlns="http://www.w3.org/2000/svg" xmlns:xlink="http://www.w3.org/1999/xlink" x="0px" y="0px"
	 viewBox="0 0 48.9 124" style="enable-background:new 0 0 48.9 124;" xml:space="preserve" fill="#fff">
<style type="text/css">
	.st0{fill:none;stroke:#fff;stroke-miterlimit:20;}
	.st1{opacity:1;fill:none;stroke:#fff;stroke-miterlimit:20;}
	.st2{fill:none;stroke:#fff;stroke-linecap:round;stroke-linejoin:round;stroke-miterlimit:20;}
</style>
<path class="st0" d="M35.3,17.8c-3.3-6.2-7.4-11.9-12-17.1C9.1,16.7,0.5,37.7,0.5,60.6c0,22.9,8.6,43.8,22.8,59.8
	c-6.9-12.7-10.8-27.3-10.8-42.7C12.5,54.8,21.1,33.8,35.3,17.8z"/>
<path class="st0" d="M23.3,120.4c-0.1-1.2-0.1-2.4-0.1-3.6c0-18.1,8.7-34.2,22.1-44.5c0.5-3.8,0.8-7.7,0.8-11.7
	c0-15.5-3.9-30-10.8-42.7c-14.2,16-22.8,36.9-22.8,59.8C12.5,93.1,16.4,107.7,23.3,120.4C23.3,120.4,23.3,120.4,23.3,120.4
	C23.3,120.4,23.3,120.4,23.3,120.4C23.3,120.4,23.3,120.4,23.3,120.4z"/>
<path class="st1" d="M17.9,94.3c0-20.9,10.2-39.6,26.3-52.1c-1.8-8.6-4.8-16.8-8.9-24.4c-14.2,16-22.8,36.9-22.8,59.8
	c0,15.4,3.9,30,10.8,42.7c0,0,0,0,0,0c0,0,0,0,0,0c0,0,0,0,0,0c0-0.2,0-0.3,0-0.5C19.8,112,17.9,103.4,17.9,94.3z"/>
<g>
	<path class="st2" d="M82.1,55"/>
</g>
</svg>
