<svg xmlns="http://www.w3.org/2000/svg" viewBox="0 0 47.56 128.27"><defs><style>.cls-1{isolation:isolate;}.cls-2,.cls-3{fill:none;stroke:#fff;stroke-miterlimit:10;stroke-width:2px;}.cls-3{opacity:0.8;mix-blend-mode:multiply;}</style></defs><title>GBT_logo--</title><g class="cls-1"><g id="Layer_1" data-name="Layer 1"><path class="cls-2" d="M157.14,56a90.63,90.63,0,0,0-12-17.09,89.95,89.95,0,0,0,0,119.63A89.93,89.93,0,0,1,157.14,56Z" transform="translate(-121.38 -37.35)"/><path class="cls-2" d="M145.19,158.5c-.08-1.2-.12-2.4-.12-3.62a55.83,55.83,0,0,1,22.12-44.48,90.41,90.41,0,0,0,.75-11.7A89.57,89.57,0,0,0,157.14,56a89.93,89.93,0,0,0-12,102.54l0,0h0Z" transform="translate(-121.38 -37.35)"/><path class="cls-3" d="M139.76,132.41c0-20.9,10.22-39.6,26.3-52.06A89.69,89.69,0,0,0,157.14,56a89.93,89.93,0,0,0-12,102.54l0,0h0l0,0,0-.49A63.28,63.28,0,0,1,139.76,132.41Z" transform="translate(-121.38 -37.35)"/></g></g></svg>