<?xml version="1.0" encoding="utf-8"?>
<!-- Generator: Adobe Illustrator 22.1.0, SVG Export Plug-In . SVG Version: 6.00 Build 0)  -->
<svg version="1.1" id="Слой_1" xmlns="http://www.w3.org/2000/svg" xmlns:xlink="http://www.w3.org/1999/xlink" x="0px" y="0px"
	 viewBox="0 0 612 792" style="enable-background:new 0 0 612 792;" xml:space="preserve">
<g fill="#4a4480">
	<path d="M399.7,191H211.9C150.7,191,101,240.7,101,301.9v187.9c0,61.1,49.7,110.9,110.9,110.9h187.9c61.1,0,110.9-49.7,110.9-110.9
		V301.9C510.6,240.7,460.9,191,399.7,191L399.7,191z M305.8,507.8c-61.8,0-112-50.2-112-112c0-61.8,50.2-112,112-112
		c61.8,0,112,50.2,112,112C417.8,457.6,367.6,507.8,305.8,507.8L305.8,507.8z M420.5,310.2c-18.2,0-33.1-14.8-33.1-33.1
		c0-18.3,14.8-33.1,33.1-33.1c18.3,0,33.1,14.8,33.1,33.1C453.6,295.4,438.7,310.2,420.5,310.2L420.5,310.2z M420.5,310.2"/>
	<path d="M305.8,307.8c-48.5,0-88,39.5-88,88c0,48.5,39.5,88,88,88c48.5,0,88-39.5,88-88C393.8,347.3,354.3,307.8,305.8,307.8
		L305.8,307.8z M305.8,307.8"/>
	<path d="M420.5,268c-5,0-9.1,4.1-9.1,9.1c0,5,4.1,9.1,9.1,9.1c5,0,9.1-4.1,9.1-9.1C429.6,272.1,425.5,268,420.5,268L420.5,268z
		 M420.5,268"/>
</g>
</svg>
