<svg xmlns="http://www.w3.org/2000/svg" viewBox="0 0 284.52 201.39"><defs><style>.cls-1{isolation:isolate;}.cls-2{fill:none;}.cls-3{fill:#2c256c;}.cls-4{fill:#d9272d;}.cls-5{fill:#b22028;opacity:0.8;mix-blend-mode:multiply;}</style></defs><title>logo</title><g class="cls-1"><g id="Layer_1" data-name="Layer 1"><polyline class="cls-2" points="285.4 199.37 0.88 199.37 0.88 -2.03"/><path class="cls-3" d="M98,43.92A91.28,91.28,0,0,0,86,26.83a89.95,89.95,0,0,0,0,119.63A89.93,89.93,0,0,1,98,43.92Z"/><path class="cls-4" d="M86.07,146.48q-.12-1.8-.12-3.63a55.84,55.84,0,0,1,22.12-44.48,90.29,90.29,0,0,0,.76-11.7A89.58,89.58,0,0,0,98,43.92,89.93,89.93,0,0,0,86,146.46l0,0h0Z"/><path class="cls-5" d="M80.64,120.39c0-20.91,10.22-39.6,26.3-52.06A89.63,89.63,0,0,0,98,43.92,89.93,89.93,0,0,0,86,146.46l0,0h0l0-.49A63.35,63.35,0,0,1,80.64,120.39Z"/><path class="cls-3" d="M131.6,148a16,16,0,0,1-11.24,4.51,19.93,19.93,0,0,1-14.46-6.07,21,21,0,0,1-4.42-6.95,23.66,23.66,0,0,1-1.63-8.93,21.33,21.33,0,0,1,1.63-8.3,20.86,20.86,0,0,1,11.24-11.36,22.5,22.5,0,0,1,18.82.81,16.22,16.22,0,0,1,6.68,6.83l-7.34,5.53a10.47,10.47,0,0,0-4.18-4.48,11.59,11.59,0,0,0-5.92-1.6,10,10,0,0,0-4.48,1,10.17,10.17,0,0,0-3.46,2.76,13.07,13.07,0,0,0-2.22,4.12,15.67,15.67,0,0,0-.79,5.05,14.77,14.77,0,0,0,.85,5.11,12.39,12.39,0,0,0,2.34,4.06,10.6,10.6,0,0,0,3.58,2.68,10.82,10.82,0,0,0,4.6,1q5.77,0,10.4-5.35V137.1h-8.3v-7.16h16.48v22.31H131.6Z"/><path class="cls-3" d="M181.57,141.31a9.75,9.75,0,0,1-1.14,4.81,9.94,9.94,0,0,1-3.13,3.39,14.82,14.82,0,0,1-4.63,2.05,22.07,22.07,0,0,1-5.59.69H146.27V109.56H170a8.42,8.42,0,0,1,4,1,10,10,0,0,1,3.07,2.49,11.58,11.58,0,0,1,1.95,3.49,12,12,0,0,1,.7,4,11.55,11.55,0,0,1-1.54,5.77,9.61,9.61,0,0,1-4.6,4.09,11,11,0,0,1,5.8,3.85A11.24,11.24,0,0,1,181.57,141.31ZM156.13,118v8.84h9.69a4.3,4.3,0,0,0,2.88-1.08,4.2,4.2,0,0,0,1.26-3.37,4.45,4.45,0,0,0-1.11-3.24,3.6,3.6,0,0,0-2.67-1.15Zm15.4,21.35a5.15,5.15,0,0,0-1.14-3.37,3.61,3.61,0,0,0-2.89-1.38H156.13v9.32h11a4.35,4.35,0,0,0,3.19-1.26A4.49,4.49,0,0,0,171.53,139.32Z"/><path class="cls-3" d="M218.67,118.21h-13v34h-9.86v-34h-13v-8.65h35.9Z"/><path class="cls-3" d="M116.85,96.64h3a1.74,1.74,0,1,1,0,3.48h-1.73v1.59h-1.27Zm1.27,2.44h1.16c.79,0,1.16-.14,1.16-.69s-.32-.71-1.07-.71h-1.25Z"/><path class="cls-3" d="M128.7,99.17c0,1.61-1.16,2.67-3,2.67s-3-1.06-3-2.67,1.18-2.66,3-2.66S128.7,97.57,128.7,99.17Zm-4.66,0a1.64,1.64,0,1,0,1.64-1.62A1.51,1.51,0,0,0,124,99.17Z"/><path class="cls-3" d="M130.45,96.64l1,3.41,1.19-3.41h1.24l1.16,3.41,1-3.41h1.32l-1.64,5.07h-1.29L133.26,98,132,101.71h-1.25l-1.61-5.07Z"/><path class="cls-3" d="M142.7,96.64v1h-3.22v.85h2.87v1h-2.87v1.1h3.22v1h-4.49V96.64Z"/><path class="cls-3" d="M144,96.64h3.11c1.31,0,2,.41,2,1.36a1.32,1.32,0,0,1-.83,1.29c.54.22.6.5.63,1.08a2.32,2.32,0,0,0,.27,1.34h-1.42a.76.76,0,0,1-.1-.39V101c0-.86-.14-1.13-.89-1.13h-1.46v1.87H144Zm1.27,2.17h1.43c.69,0,1-.13,1-.6s-.35-.53-1.08-.53h-1.38Z"/><path class="cls-3" d="M159.05,99.17c0,1.61-1.17,2.67-3,2.67s-3-1.06-3-2.67,1.17-2.66,3-2.66S159.05,97.57,159.05,99.17Zm-4.67,0A1.64,1.64,0,1,0,156,97.55,1.51,1.51,0,0,0,154.38,99.17Z"/><path class="cls-3" d="M164.58,96.64v1h-3.06v1h2.79v1h-2.79v2h-1.26V96.64Z"/><path class="cls-3" d="M173.07,96.64v1h-3.22v.85h2.87v1h-2.87v1.1h3.22v1h-4.49V96.64Z"/><path class="cls-3" d="M175.06,96.64l1.45,3.64L178,96.64h1.39l-2.23,5.07h-1.28l-2.21-5.07Z"/><path class="cls-3" d="M185.94,99.17c0,1.61-1.16,2.67-3,2.67s-3-1.06-3-2.67,1.18-2.66,3-2.66S185.94,97.57,185.94,99.17Zm-4.66,0a1.64,1.64,0,1,0,1.64-1.62A1.51,1.51,0,0,0,181.28,99.17Z"/><path class="cls-3" d="M188.42,100.67H191v1h-3.87V96.64h1.27Z"/><path class="cls-3" d="M193.42,96.64v2.72c0,1,.38,1.44,1.32,1.44s1.33-.55,1.33-1.37V96.64h1.27V99.5c0,1.54-.9,2.34-2.6,2.34s-2.59-.82-2.59-2.35V96.64Z"/><path class="cls-3" d="M203,96.64v1h-1.74v4H200v-4h-1.73v-1Z"/><path class="cls-3" d="M205.12,101.71h-1.27V96.64h1.27Z"/><path class="cls-3" d="M212.41,99.17c0,1.61-1.17,2.67-3,2.67s-3-1.06-3-2.67,1.17-2.66,3-2.66S212.41,97.57,212.41,99.17Zm-4.67,0a1.64,1.64,0,1,0,1.64-1.62A1.51,1.51,0,0,0,207.74,99.17Z"/><path class="cls-3" d="M215.18,96.64l2.53,3.57V96.64h1.22v5.07h-1.54l-2.55-3.61v3.61h-1.22V96.64Z"/></g></g></svg>