<?xml version="1.0" encoding="utf-8"?>
<!-- Generator: Adobe Illustrator 22.1.0, SVG Export Plug-In . SVG Version: 6.00 Build 0)  -->
<svg version="1.1" id="Слой_1" xmlns="http://www.w3.org/2000/svg" xmlns:xlink="http://www.w3.org/1999/xlink" x="0px" y="0px"
	 viewBox="0 0 284.5 201.4" style="enable-background:new 0 0 284.5 201.4;" xml:space="preserve">
<style type="text/css">
	.st0{clip-path:url(#SVGID_2_);}
	.st1{clip-path:url(#SVGID_4_);fill:#2C256C;}
	.st2{clip-path:url(#SVGID_4_);fill:#D9272D;}
	.st3{opacity:0.8;clip-path:url(#SVGID_4_);}
	.st4{clip-path:url(#SVGID_6_);fill:#7d0d10;}
</style>
<g>
	<defs>
		<rect id="SVGID_1_" width="284.5" height="201.4"/>
	</defs>
	<clipPath id="SVGID_2_">
		<use xlink:href="#SVGID_1_"  style="overflow:visible;"/>
	</clipPath>
	<g class="st0">
		<defs>
			<rect id="SVGID_3_" width="284.5" height="201.4"/>
		</defs>
		<clipPath id="SVGID_4_">
			<use xlink:href="#SVGID_3_"  style="overflow:visible;"/>
		</clipPath>
		<path class="st1" d="M97.1,45.9c-3.3-6.2-7.4-11.9-12-17.1C71,44.8,62.4,65.8,62.4,88.7c0,22.9,8.6,43.8,22.8,59.8
			c-6.9-12.7-10.8-27.3-10.8-42.7C74.4,82.9,83,61.9,97.1,45.9"/>
		<path class="st2" d="M85.2,148.5c-0.1-1.2-0.1-2.4-0.1-3.6c0-18.1,8.7-34.2,22.1-44.5c0.5-3.8,0.8-7.7,0.8-11.7
			c0-15.5-3.9-30-10.8-42.7c-14.2,16-22.8,36.9-22.8,59.8C74.4,121.2,78.3,135.8,85.2,148.5C85.1,148.5,85.2,148.5,85.2,148.5
			C85.2,148.5,85.2,148.5,85.2,148.5C85.2,148.5,85.2,148.5,85.2,148.5"/>
		<g class="st3">
			<g>
				<defs>
					<rect id="SVGID_5_" x="74.4" y="45.9" width="31.7" height="102.6"/>
				</defs>
				<clipPath id="SVGID_6_">
					<use xlink:href="#SVGID_5_"  style="overflow:visible;"/>
				</clipPath>
				<path class="st4" d="M79.8,122.4c0-20.9,10.2-39.6,26.3-52.1c-1.8-8.6-4.8-16.8-8.9-24.4c-14.2,16-22.8,36.9-22.8,59.8
					c0,15.4,3.9,30,10.8,42.7c0,0,0,0,0,0c0,0,0,0,0,0c0,0,0,0,0,0c0-0.2,0-0.3,0-0.5C81.7,140.1,79.8,131.5,79.8,122.4"/>
			</g>
		</g>
		<path class="st1" d="M130.7,150.1c-3.2,3-7,4.5-11.2,4.5c-2.8,0-5.5-0.5-7.9-1.6c-2.5-1.1-4.7-2.6-6.5-4.5
			c-1.9-1.9-3.3-4.2-4.4-6.9c-1.1-2.7-1.6-5.7-1.6-8.9c0-2.9,0.5-5.7,1.6-8.3c1.1-2.6,2.6-4.9,4.5-6.8c1.9-1.9,4.2-3.4,6.8-4.6
			c2.6-1.1,5.4-1.7,8.4-1.7c4,0,7.4,0.8,10.4,2.5c3,1.7,5.2,3.9,6.7,6.8l-7.3,5.5c-1-1.9-2.4-3.4-4.2-4.5c-1.8-1.1-3.8-1.6-5.9-1.6
			c-1.6,0-3.1,0.3-4.5,1c-1.3,0.7-2.5,1.6-3.5,2.8c-1,1.2-1.7,2.6-2.2,4.1c-0.5,1.6-0.8,3.2-0.8,5.1c0,1.8,0.3,3.5,0.8,5.1
			c0.6,1.6,1.3,2.9,2.3,4.1c1,1.1,2.2,2,3.6,2.7c1.4,0.6,2.9,1,4.6,1c3.8,0,7.3-1.8,10.4-5.4v-1.3h-8.3V132h16.5v22.3h-8.2V150.1z"
			/>
		<path class="st1" d="M180.7,143.3c0,1.8-0.4,3.4-1.1,4.8c-0.8,1.4-1.8,2.5-3.1,3.4c-1.3,0.9-2.9,1.6-4.6,2
			c-1.8,0.5-3.6,0.7-5.6,0.7h-20.8v-42.7h23.8c1.5,0,2.8,0.3,4,1c1.2,0.6,2.2,1.5,3.1,2.5c0.8,1,1.5,2.2,2,3.5
			c0.5,1.3,0.7,2.6,0.7,4c0,2-0.5,4-1.5,5.8c-1,1.8-2.6,3.2-4.6,4.1c2.4,0.7,4.4,2,5.8,3.8C180,138.1,180.7,140.4,180.7,143.3
			 M155.3,120v8.8h9.7c1.1,0,2-0.4,2.9-1.1c0.8-0.7,1.3-1.8,1.3-3.4c0-1.4-0.4-2.5-1.1-3.2c-0.7-0.8-1.6-1.1-2.7-1.1H155.3z
			 M170.6,141.3c0-1.3-0.4-2.4-1.1-3.4c-0.8-0.9-1.7-1.4-2.9-1.4h-11.4v9.3h10.9c1.3,0,2.3-0.4,3.2-1.3
			C170.2,143.8,170.6,142.7,170.6,141.3"/>
		<polygon class="st1" points="217.8,120.2 204.8,120.2 204.8,154.3 194.9,154.3 194.9,120.2 181.9,120.2 181.9,111.6 217.8,111.6 
					"/>
		<path class="st1" d="M116,98.7h3c1.2,0,1.9,0.7,1.9,1.7c0,1.1-0.7,1.8-1.9,1.8h-1.7v1.6H116V98.7z M117.2,101.1h1.2
			c0.8,0,1.2-0.1,1.2-0.7c0-0.6-0.3-0.7-1.1-0.7h-1.2V101.1z"/>
		<path class="st1" d="M127.8,101.2c0,1.6-1.2,2.7-3,2.7c-1.9,0-3-1.1-3-2.7c0-1.6,1.2-2.7,3-2.7C126.7,98.5,127.8,99.6,127.8,101.2
			 M123.2,101.2c0,1,0.6,1.6,1.6,1.6c1,0,1.6-0.6,1.6-1.6c0-1-0.6-1.6-1.6-1.6C123.8,99.6,123.2,100.2,123.2,101.2"/>
		<polygon class="st1" points="129.6,98.7 130.6,102.1 131.8,98.7 133,98.7 134.2,102.1 135.2,98.7 136.5,98.7 134.9,103.7 
			133.6,103.7 132.4,100 131.1,103.7 129.9,103.7 128.3,98.7 		"/>
		<polygon class="st1" points="141.8,98.7 141.8,99.7 138.6,99.7 138.6,100.6 141.5,100.6 141.5,101.6 138.6,101.6 138.6,102.7 
			141.8,102.7 141.8,103.7 137.3,103.7 137.3,98.7 		"/>
		<path class="st1" d="M143.1,98.7h3.1c1.3,0,2,0.4,2,1.4c0,0.6-0.3,1.1-0.8,1.3c0.5,0.2,0.6,0.5,0.6,1.1c0,0.6,0,1.1,0.3,1.3h-1.4
			c-0.1-0.1-0.1-0.2-0.1-0.4V103c0-0.9-0.1-1.1-0.9-1.1h-1.5v1.9h-1.3V98.7z M144.4,100.8h1.4c0.7,0,1-0.1,1-0.6
			c0-0.5-0.4-0.5-1.1-0.5h-1.4V100.8z"/>
		<path class="st1" d="M158.2,101.2c0,1.6-1.2,2.7-3,2.7c-1.9,0-3-1.1-3-2.7c0-1.6,1.2-2.7,3-2.7C157,98.5,158.2,99.6,158.2,101.2
			 M153.5,101.2c0,1,0.6,1.6,1.6,1.6c1,0,1.6-0.6,1.6-1.6c0-1-0.6-1.6-1.6-1.6C154.1,99.6,153.5,100.2,153.5,101.2"/>
		<polygon class="st1" points="163.7,98.7 163.7,99.7 160.6,99.7 160.6,100.7 163.4,100.7 163.4,101.7 160.6,101.7 160.6,103.7 
			159.4,103.7 159.4,98.7 		"/>
		<polygon class="st1" points="172.2,98.7 172.2,99.7 169,99.7 169,100.6 171.8,100.6 171.8,101.6 169,101.6 169,102.7 172.2,102.7 
			172.2,103.7 167.7,103.7 167.7,98.7 		"/>
		<polygon class="st1" points="174.2,98.7 175.6,102.3 177.1,98.7 178.5,98.7 176.3,103.7 175,103.7 172.8,98.7 		"/>
		<path class="st1" d="M185.1,101.2c0,1.6-1.2,2.7-3,2.7c-1.9,0-3-1.1-3-2.7c0-1.6,1.2-2.7,3-2.7C183.9,98.5,185.1,99.6,185.1,101.2
			 M180.4,101.2c0,1,0.6,1.6,1.6,1.6c1,0,1.6-0.6,1.6-1.6c0-1-0.6-1.6-1.6-1.6C181,99.6,180.4,100.2,180.4,101.2"/>
		<polygon class="st1" points="187.5,102.7 190.1,102.7 190.1,103.7 186.3,103.7 186.3,98.7 187.5,98.7 		"/>
		<path class="st1" d="M192.5,98.7v2.7c0,1,0.4,1.4,1.3,1.4c1,0,1.3-0.6,1.3-1.4v-2.8h1.3v2.9c0,1.5-0.9,2.3-2.6,2.3
			c-1.7,0-2.6-0.8-2.6-2.4v-2.8H192.5z"/>
		<polygon class="st1" points="202.1,98.7 202.1,99.7 200.3,99.7 200.3,103.7 199.1,103.7 199.1,99.7 197.3,99.7 197.3,98.7 		"/>
		<rect x="203" y="98.7" class="st1" width="1.3" height="5.1"/>
		<path class="st1" d="M211.5,101.2c0,1.6-1.2,2.7-3,2.7c-1.9,0-3-1.1-3-2.7c0-1.6,1.2-2.7,3-2.7C210.4,98.5,211.5,99.6,211.5,101.2
			 M206.9,101.2c0,1,0.6,1.6,1.6,1.6c1,0,1.6-0.6,1.6-1.6c0-1-0.6-1.6-1.6-1.6C207.5,99.6,206.9,100.2,206.9,101.2"/>
		<polygon class="st1" points="214.3,98.7 216.8,102.2 216.8,98.7 218,98.7 218,103.7 216.5,103.7 214,100.1 214,103.7 212.7,103.7 
			212.7,98.7 		"/>
	</g>
</g>
</svg>
