<?xml version="1.0" encoding="utf-8"?>
<!-- Generator: Adobe Illustrator 22.1.0, SVG Export Plug-In . SVG Version: 6.00 Build 0)  -->
<svg version="1.1" id="Слой_1" xmlns="http://www.w3.org/2000/svg" xmlns:xlink="http://www.w3.org/1999/xlink" x="0px" y="0px"
	 viewBox="0 0 45.6 119.7" style="enable-background:new 0 0 45.6 119.7;" xml:space="preserve">
<style type="text/css">
	.st0{clip-path:url(#SVGID_2_);}
	.st1{clip-path:url(#SVGID_4_);fill:#2C256C;}
	.st2{clip-path:url(#SVGID_4_);fill:#D9272D;}
	.st3{opacity:0.8;clip-path:url(#SVGID_4_);}
	.st4{clip-path:url(#SVGID_6_);fill:#B22029;}
</style>
<g>
	<defs>
		<rect id="SVGID_1_" width="45.6" height="119.7"/>
	</defs>
	<clipPath id="SVGID_2_">
		<use xlink:href="#SVGID_1_"  style="overflow:visible;"/>
	</clipPath>
	<g class="st0">
		<defs>
			<rect id="SVGID_3_" width="45.6" height="119.7"/>
		</defs>
		<clipPath id="SVGID_4_">
			<use xlink:href="#SVGID_3_"  style="overflow:visible;"/>
		</clipPath>
		<path class="st1" d="M34.8,17.1c-3.3-6.2-7.4-11.9-12-17.1C8.6,16,0,36.9,0,59.8c0,22.9,8.6,43.8,22.8,59.8
			C15.9,106.9,12,92.4,12,76.9C12,54,20.6,33.1,34.8,17.1"/>
		<path class="st2" d="M22.8,119.6c-0.1-1.2-0.1-2.4-0.1-3.6c0-18.1,8.7-34.2,22.1-44.5c0.5-3.8,0.8-7.7,0.8-11.7
			c0-15.5-3.9-30-10.8-42.7C20.6,33.1,12,54,12,76.9C12,92.4,15.9,106.9,22.8,119.6C22.8,119.6,22.8,119.6,22.8,119.6
			C22.8,119.7,22.8,119.7,22.8,119.6C22.8,119.7,22.8,119.6,22.8,119.6"/>
		<g class="st3">
			<g>
				<defs>
					<rect id="SVGID_5_" x="12" y="17.1" width="31.7" height="102.6"/>
				</defs>
				<clipPath id="SVGID_6_">
					<use xlink:href="#SVGID_5_"  style="overflow:visible;"/>
				</clipPath>
				<path class="st4" d="M17.4,93.6c0-20.9,10.2-39.6,26.3-52.1c-1.8-8.6-4.8-16.8-8.9-24.4C20.6,33.1,12,54,12,76.9
					c0,15.4,3.9,30,10.8,42.7c0,0,0,0,0,0c0,0,0,0,0,0c0,0,0,0,0,0c0-0.2,0-0.3,0-0.5C19.3,111.3,17.4,102.6,17.4,93.6"/>
			</g>
		</g>
	</g>
</g>
</svg>
