<svg height="512pt" viewBox="-44 0 512 512.00097" width="512pt" xmlns="http://www.w3.org/2000/svg"><path d="m16.113281 390.019531-16.113281 25.296875 151.765625 96.683594 16.113281-25.292969-63.191406-40.257812 38.964844-60.710938c58.605468 6.28125 133.265625 3.148438 188.832031-15.375 52.035156-17.347656 62.957031-40.375 62.957031-56.640625 0-13.929687-8.035156-32.921875-43.359375-49.011718 2.992188-5.253907 5.632813-10.75 7.875-16.46875l63.617188-137.464844-173.882813-110.777344-97.699218 115.75c-50.652344 53.207031-44.804688 137.855469 11.351562 183.78125l-34.699219 54.0625c-18.664062-2.8125-35.804687-6.738281-50.640625-11.683594-33.582031-11.195312-42.453125-23.332031-42.453125-28.1875 0-6.707031 14.320313-20.664062 53.765625-31.632812l-8.035156-28.894532c-21.710938 6.035157-39.125 13.5625-51.761719 22.363282-19.804687 13.792968-23.960937 28.367187-23.960937 38.164062 0 16.265625 10.925781 39.292969 62.960937 56.640625 12.816407 4.273438 27.128907 7.84375 42.511719 10.675781l-31.636719 49.292969zm158.191407-254.207031 81.390624-96.425781 129.644532 82.59375-13.484375 29.136719c-10.5625-2.378907-21.902344-2.976563-33.03125-1.667969-17.058594 2.007812-32.441407 8.4375-43.316407 18.105469-16.695312 14.839843-53.355468 14.839843-70.050781 0-15.359375-13.652344-38.894531-20.132813-61.835937-18.570313 5.097656-7.550781 10.503906-12.96875 10.683594-13.171875zm-24.824219 46.324219c18.738281-6.46875 43.480469-3.339844 56.054687 7.832031 14.121094 12.554688 34.535156 18.832031 54.949219 18.832031 20.410156 0 40.824219-6.277343 54.945313-18.832031 9.867187-8.765625 27.203124-12.667969 43.402343-10.710938l-26.285156 56.804688-.375.878906c-21.832031 56.316406-89.691406 78.488282-140.546875 46.105469l-.054688-.035156c-34.246093-21.835938-50.410156-62.261719-42.089843-100.875zm39.164062 133.496093c49.429688 23.792969 107.910157 12.417969 144.980469-26.199218 21.789062 8.808594 31.828125 18.457031 31.828125 24.289062 0 4.855469-8.875 16.996094-42.453125 28.1875-47.75 15.917969-111.136719 19.109375-161.097656 15.386719zm0 0"/></svg>