<svg id="Слой_1" data-name="Слой 1" xmlns="http://www.w3.org/2000/svg" viewBox="0 0 512 512"><defs><style>.cls-1{fill:#2c256b;}</style></defs><title>sugar</title><path class="cls-1" d="M256,0C114.6,0,0,114.6,0,256S114.6,512,256,512,512,397.4,512,256C511.8,114.7,397.3.2,256,0Zm0,494.9C124,494.9,17.1,388,17.1,256S124,17.1,256,17.1,494.9,124,494.9,256,387.9,494.8,256,494.9Z"/><path class="cls-1" d="M391.9,168.3a3,3,0,0,0-.4-.8,5.67,5.67,0,0,0-1.2-1.8c-.2-.2-.3-.4-.5-.6a7.76,7.76,0,0,0-2.4-1.6l-.1-.1-76.6-34.1h-.2a6.46,6.46,0,0,0-1.9-.4l-1.4-.3a6.75,6.75,0,0,0-1.4.2,12.86,12.86,0,0,0-1.9.4c-.1,0-.1,0-.2.1l-76.6,34.1-.1.1a6.34,6.34,0,0,0-2.3,1.6,2.65,2.65,0,0,0-.5.6,9.39,9.39,0,0,0-1.2,1.8c-.1.3-.3.5-.4.8a7.65,7.65,0,0,0-.6,3v27.6l-22.1-9.8c-.1,0-.1,0-.2-.1-1.1-.3-2.2-.5-3.3-.7a3.53,3.53,0,0,0-1.4.3,12.86,12.86,0,0,0-1.9.4c-.1,0-.1,0-.2.1l-76.6,34.1-.1.1a6.34,6.34,0,0,0-2.3,1.6,2.65,2.65,0,0,0-.5.6,9.39,9.39,0,0,0-1.2,1.8c-.1.3-.3.5-.4.8a7.65,7.65,0,0,0-.6,3V333.5a4.25,4.25,0,0,0,.2,1.1,5.6,5.6,0,0,0,1.3,3.5,14.63,14.63,0,0,0,.9,1.3,8.32,8.32,0,0,0,1.8,1.3l.9.6.1.1L193,375.5h.1a.6.6,0,0,0,.4.1,7.17,7.17,0,0,0,2.9.6h.1a7.17,7.17,0,0,0,2.9-.6.6.6,0,0,1,.4-.1h.1l76.6-34.1.1-.1.9-.6a5.94,5.94,0,0,0,1.8-1.3c.3-.4.6-.9.9-1.3s.6-.9.9-1.4a7.79,7.79,0,0,0,.4-2.1c.1-.4.2-.7.3-1.1V305.8l22.1,9.9h.1a.6.6,0,0,0,.4.1,7.17,7.17,0,0,0,2.9.6h.1a7.17,7.17,0,0,0,2.9-.6.6.6,0,0,1,.4-.1h.1l76.6-34.1.1-.1.9-.6a5.94,5.94,0,0,0,1.8-1.3c.3-.4.6-.9.9-1.3s.6-.9.9-1.4a7.79,7.79,0,0,0,.4-2.1c.1-.4.2-.7.3-1.1V171.3A16.66,16.66,0,0,0,391.9,168.3ZM315.7,211l59.7-26.5v83.7l-59.7,26.5Zm-8.5-64.5L363,171.3l-55.8,24.8-55.8-24.8ZM196.3,206.2,227,219.9l.2.1,24.9,11.1-55.8,24.8L140.5,231Zm68.2,86.3v35.4l-59.7,26.5V270.6L264.5,244ZM128,244.1l59.7,26.6v83.7L128,327.9ZM281.6,231a8.61,8.61,0,0,0-1-3.8,5.67,5.67,0,0,0-1.2-1.8c-.2-.2-.3-.4-.5-.6a7.76,7.76,0,0,0-2.4-1.6l-.1-.1-37.5-16.6V184.4l59.7,26.5v83.7L281.5,287V231Z"/></svg>