<?xml version="1.0" encoding="utf-8"?>
<!-- Generator: Adobe Illustrator 23.0.1, SVG Export Plug-In . SVG Version: 6.00 Build 0)  -->
<svg version="1.1" id="Слой_1" xmlns="http://www.w3.org/2000/svg" xmlns:xlink="http://www.w3.org/1999/xlink" x="0px" y="0px"
	 viewBox="0 0 512 512" style="enable-background:new 0 0 512 512;" xml:space="preserve">
<path d="M256,0C114.6,0,0,114.6,0,256s114.6,256,256,256s256-114.6,256-256C511.8,114.7,397.3,0.2,256,0z M256,494.9
	C124,494.9,17.1,388,17.1,256S124,17.1,256,17.1S494.9,124,494.9,256C494.8,387.9,387.9,494.8,256,494.9z"/>
<path d="M391.9,168.3c-0.1-0.3-0.2-0.5-0.4-0.8c-0.3-0.7-0.7-1.3-1.2-1.8c-0.2-0.2-0.3-0.4-0.5-0.6c-0.7-0.7-1.5-1.2-2.4-1.6
	l-0.1-0.1l-76.6-34.1c-0.1,0-0.1,0-0.2,0c-0.6-0.2-1.3-0.4-1.9-0.4c-0.5-0.1-0.9-0.2-1.4-0.3c-0.5,0-0.9,0.1-1.4,0.2
	c-0.6,0.1-1.3,0.2-1.9,0.4c-0.1,0-0.1,0-0.2,0.1l-76.6,34.1l-0.1,0.1c-0.9,0.4-1.7,0.9-2.3,1.6c-0.2,0.2-0.4,0.4-0.5,0.6
	c-0.5,0.6-0.9,1.2-1.2,1.8c-0.1,0.3-0.3,0.5-0.4,0.8c-0.4,0.9-0.6,2-0.6,3v27.6l-22.1-9.8c-0.1,0-0.1,0-0.2-0.1
	c-1.1-0.3-2.2-0.5-3.3-0.7c-0.5,0-0.9,0.1-1.4,0.3c-0.6,0.1-1.3,0.2-1.9,0.4c-0.1,0-0.1,0-0.2,0.1l-76.6,34.1l-0.1,0.1
	c-0.9,0.4-1.7,0.9-2.3,1.6c-0.2,0.2-0.4,0.4-0.5,0.6c-0.5,0.6-0.9,1.2-1.2,1.8c-0.1,0.3-0.3,0.5-0.4,0.8c-0.4,0.9-0.6,2-0.6,3v102.4
	c0,0.4,0.1,0.7,0.2,1.1c0,1.3,0.5,2.5,1.3,3.5c0.3,0.5,0.6,0.9,0.9,1.3c0.5,0.5,1.1,0.9,1.8,1.3c0.3,0.2,0.6,0.4,0.9,0.6l0.1,0.1
	l76.6,34.1h0.1c0.1,0.1,0.3,0.1,0.4,0.1c0.9,0.4,1.9,0.6,2.9,0.6h0.1c1,0,2-0.2,2.9-0.6c0.1-0.1,0.3-0.1,0.4-0.1h0.1l76.6-34.1
	l0.1-0.1c0.3-0.2,0.6-0.4,0.9-0.6c0.7-0.3,1.3-0.8,1.8-1.3c0.3-0.4,0.6-0.9,0.9-1.3c0.3-0.4,0.6-0.9,0.9-1.4
	c0.2-0.7,0.4-1.4,0.4-2.1c0.1-0.4,0.2-0.7,0.3-1.1v-27.7l22.1,9.9h0.1c0.1,0.1,0.3,0.1,0.4,0.1c0.9,0.4,1.9,0.6,2.9,0.6h0.1
	c1,0,2-0.2,2.9-0.6c0.1-0.1,0.3-0.1,0.4-0.1h0.1l76.6-34.1l0.1-0.1c0.3-0.2,0.6-0.4,0.9-0.6c0.7-0.3,1.3-0.8,1.8-1.3
	c0.3-0.4,0.6-0.9,0.9-1.3c0.3-0.4,0.6-0.9,0.9-1.4c0.2-0.7,0.4-1.4,0.4-2.1c0.1-0.4,0.2-0.7,0.3-1.1V171.3
	C392.5,170.3,392.3,169.3,391.9,168.3z M315.7,211l59.7-26.5v83.7l-59.7,26.5V211z M307.2,146.5l55.8,24.8l-55.8,24.8l-55.8-24.8
	L307.2,146.5z M196.3,206.2l30.7,13.7l0.2,0.1l24.9,11.1l-55.8,24.8L140.5,231L196.3,206.2z M264.5,292.5v35.4l-59.7,26.5v-83.8
	l59.7-26.6V292.5z M128,244.1l59.7,26.6v83.7L128,327.9V244.1z M281.6,231c0-1.3-0.4-2.6-1-3.8c-0.3-0.7-0.7-1.3-1.2-1.8
	c-0.2-0.2-0.3-0.4-0.5-0.6c-0.7-0.7-1.5-1.2-2.4-1.6l-0.1-0.1l-37.5-16.6v-22.1l59.7,26.5v83.7l-17.1-7.6V231z"/>
</svg>
