<svg height="512pt" viewBox="-27 0 512 512" width="512pt" xmlns="http://www.w3.org/2000/svg"><path d="m126.875 123.957031v-113.957031c0-5.523438-4.476562-10-10-10h-56c-5.519531 0-10 4.476562-10 10v113.957031c-31.113281 16.191407-50.875 48.421875-50.875 83.867188v294.175781c0 5.523438 4.476562 10 10 10h157.75c5.523438 0 10-4.476562 10-10v-294.175781c0-35.445313-19.761719-67.675781-50.875-83.867188zm-20-103.957031v64.574219h-36v-64.574219zm-86.875 472v-60.183594h67.75c5.523438 0 10-4.476562 10-10 0-5.519531-4.476562-10-10-10h-67.75v-145.816406h137.75v226zm137.75-246h-137.75v-38.175781c0-29.710938 17.609375-56.554688 44.859375-68.390625 3.652344-1.585938 6.015625-5.191406 6.015625-9.171875v-25.6875h36v25.6875c0 3.980469 2.363281 7.585937 6.015625 9.171875 27.253906 11.835937 44.859375 38.679687 44.859375 68.390625zm0 0"/><path d="m126.710938 411.820312c-2.632813 0-5.210938 1.070313-7.070313 2.929688s-2.929687 4.4375-2.929687 7.070312c0 2.628907 1.066406 5.210938 2.929687 7.070313 1.859375 1.859375 4.4375 2.929687 7.070313 2.929687 2.628906 0 5.210937-1.070312 7.066406-2.929687 1.863281-1.859375 2.933594-4.441406 2.933594-7.070313 0-2.632812-1.070313-5.210937-2.933594-7.070312-1.855469-1.859375-4.4375-2.929688-7.066406-2.929688zm0 0"/><path d="m375.171875 219c2.628906 0 5.207031-1.070312 7.066406-2.929688 1.859375-1.859374 2.933594-4.441406 2.933594-7.070312s-1.070313-5.210938-2.933594-7.070312c-1.859375-1.859376-4.4375-2.929688-7.066406-2.929688-2.632813 0-5.210937 1.070312-7.070313 2.929688-1.859374 1.859374-2.929687 4.441406-2.929687 7.070312s1.066406 5.210938 2.929687 7.070312c1.859376 1.859376 4.4375 2.929688 7.070313 2.929688zm0 0"/><path d="m448 199h-33.496094c-5.523437 0-10 4.476562-10 10s4.476563 10 10 10h23.496094v55.984375c0 .300781-.007812.597656-.011719.894531-25.628906 23.929688-65.9375 23.421875-90.917969-1.5625-16.136718-16.140625-37.597656-25.03125-60.421874-25.03125-16.011719 0-31.34375 4.394532-44.648438 12.574219v-42.859375h92.503906c5.523438 0 10-4.476562 10-10s-4.476562-10-10-10h-102.503906c-5.523438 0-10 4.476562-10 10v65.984375c0 61.699219 47.597656 112.480469 108 117.574219v99.441406h-32.691406c-5.523438 0-10 4.476562-10 10s4.476562 10 10 10h85.386718c5.523438 0 10-4.476562 10-10s-4.476562-10-10-10h-32.695312v-99.441406c60.402344-5.09375 108-55.875 108-117.574219v-65.984375c0-5.523438-4.476562-10-10-10zm-108 173.984375c-50.21875 0-91.730469-37.96875-97.347656-86.707031 12.070312-10.980469 27.570312-16.992188 43.992187-16.992188 17.484375 0 33.921875 6.808594 46.285157 19.171875 16.65625 16.660157 38.539062 24.988281 60.421874 24.988281 13.945313 0 27.882813-3.398437 40.476563-10.164062-12.171875 40.285156-49.625 69.703125-93.828125 69.703125zm0 0"/><path d="m280 291.710938c-2.628906 0-5.210938 1.070312-7.070312 2.929687-1.859376 1.859375-2.929688 4.4375-2.929688 7.070313 0 2.628906 1.070312 5.210937 2.929688 7.070312 1.859374 1.859375 4.441406 2.929688 7.070312 2.929688s5.210938-1.070313 7.070312-2.929688c1.859376-1.859375 2.929688-4.441406 2.929688-7.070312 0-2.632813-1.070312-5.199219-2.929688-7.070313-1.859374-1.859375-4.441406-2.929687-7.070312-2.929687zm0 0"/><path d="m331.070312 318.738281c1.859376-1.867187 2.929688-4.4375 2.929688-7.066406 0-2.640625-1.070312-5.210937-2.929688-7.070313-1.859374-1.871093-4.441406-2.929687-7.070312-2.929687s-5.210938 1.058594-7.070312 2.929687c-1.859376 1.859376-2.929688 4.429688-2.929688 7.070313 0 2.628906 1.070312 5.207031 2.929688 7.066406 1.859374 1.859375 4.441406 2.933594 7.070312 2.933594s5.210938-1.070313 7.070312-2.933594zm0 0"/><path d="m378.5 325.5c-2.628906 0-5.210938 1.070312-7.070312 2.929688-1.859376 1.859374-2.929688 4.441406-2.929688 7.070312s1.070312 5.210938 2.929688 7.070312c1.859374 1.859376 4.441406 2.929688 7.070312 2.929688s5.210938-1.070312 7.070312-2.929688c1.859376-1.859374 2.929688-4.441406 2.929688-7.070312s-1.070312-5.210938-2.929688-7.070312c-1.859374-1.859376-4.441406-2.929688-7.070312-2.929688zm0 0"/><path d="m327.328125 341.621094c-2.628906 0-5.207031 1.066406-7.066406 2.929687-1.863281 1.859375-2.933594 4.4375-2.933594 7.070313 0 2.628906 1.070313 5.207031 2.933594 7.066406 1.859375 1.863281 4.4375 2.933594 7.066406 2.933594 2.640625 0 5.210937-1.070313 7.070313-2.933594 1.871093-1.867188 2.929687-4.4375 2.929687-7.066406 0-2.632813-1.058594-5.210938-2.929687-7.070313-1.859376-1.863281-4.4375-2.929687-7.070313-2.929687zm0 0"/></svg>